<svg width="472" height="320" viewBox="0 0 472 320" fill="none" xmlns="http://www.w3.org/2000/svg">
<path d="M233.98 10.0303C298.053 9.01028 359.867 33.9276 406.062 79.2637L407.151 80.3379L407.184 80.3711L407.217 80.4053C436.073 109.627 460.911 151.102 461.079 195.849L461.077 196.979C460.938 220.703 453.528 243.872 436.219 261.701V261.702C413.577 285.022 377.854 296.672 342.531 302.756C306.848 308.901 269.581 309.673 242.146 309.769H236.635C208.631 309.747 171.916 309.293 136.545 304.049C99.7698 298.596 62.4576 287.71 38.0979 264.936L36.9485 263.842C18.6962 246.195 10.6994 223.248 10.0432 198.981C8.86584 155.429 31.9926 114.057 59.094 84.7588C103.693 36.5462 165.291 11.8772 228.999 10.1016H229.028C230.677 10.0602 232.328 10.0378 233.98 10.0312V10.0303Z" fill="white" stroke="black" stroke-width="20"/>
<path d="M149.312 118.529C177.202 118.529 200.001 147.289 200.001 183.029C200.001 218.769 177.202 247.529 149.312 247.529C121.423 247.529 98.6238 218.77 98.6238 183.029C98.6238 147.289 121.423 118.529 149.312 118.529Z" fill="black" stroke="black"/>
<path d="M318.477 134.158C345.468 134.158 367.349 156.039 367.349 183.029C367.349 210.02 345.468 231.901 318.477 231.901C291.486 231.901 269.606 210.02 269.606 183.029C269.606 156.039 291.486 134.158 318.477 134.158Z" fill="black" stroke="black"/>
</svg>
