<svg width="1404" height="320" viewBox="0 0 1404 320" fill="none" xmlns="http://www.w3.org/2000/svg">
<ellipse cx="614.5" cy="166.5" rx="14.5" ry="16.5" fill="black"/>
<mask id="path-2-outside-1_3021_3" maskUnits="userSpaceOnUse" x="506" y="48" width="898" height="254" fill="black">
<rect fill="white" x="506" y="48" width="898" height="254"/>
<path d="M608.004 178.709C608.395 179.002 609.518 179.148 611.373 179.148C613.229 179.148 614.645 178.416 615.621 176.951C616.598 175.486 617.086 173.094 617.086 169.773V158.641C617.086 155.125 616.647 152.635 615.768 151.17C614.987 149.607 613.619 148.826 611.666 148.826C609.811 148.826 608.541 149.021 607.858 149.412C607.955 149.9 608.004 150.73 608.004 151.902V178.709ZM611.666 244.92V267.332C607.369 270.945 601.315 273.924 593.502 276.268C585.69 278.514 577.535 279.637 569.039 279.637C556.93 279.637 547.018 277.293 539.303 272.605C530.514 267.234 526.119 259.471 526.119 249.314V110.154C526.119 107.029 528.219 103.904 532.418 100.779C536.715 97.6543 542.623 94.8223 550.143 92.2832C566.256 86.8145 584.664 84.0801 605.367 84.0801C633.981 84.0801 656.783 91.209 673.776 105.467C690.768 119.725 699.264 138.914 699.264 163.035C699.264 187.059 691.598 205.76 676.266 219.139C661.52 231.834 641.061 238.182 614.889 238.182C608.932 238.182 602.535 237.498 595.699 236.131C588.961 234.666 584.42 233.396 582.076 232.322C581.295 233.104 580.905 234.178 580.905 235.545C580.905 240.525 591.158 243.65 611.666 244.92ZM859.957 204.49C859.957 211.521 860.739 217.186 862.301 221.482C863.864 225.779 866.598 229.148 870.504 231.59C870.602 232.078 870.651 233.006 870.651 234.373V237.01C870.651 250.486 866.744 260.984 858.932 268.504C851.217 275.926 841.207 279.637 828.903 279.637C816.696 279.637 806.783 276.17 799.166 269.236C790.28 261.326 785.836 249.314 785.836 233.201C785.836 226.365 786.129 220.359 786.715 215.184C787.399 209.91 787.838 206.15 788.033 203.904C788.326 201.658 788.619 199.559 788.912 197.605C789.205 195.652 789.352 192.771 789.352 188.963C789.352 185.154 788.815 182.42 787.74 180.76C786.764 179.1 785.348 178.27 783.492 178.27C781.735 178.27 780.172 178.66 778.805 179.441L780.709 203.318C778.951 213.182 778.073 223.631 778.073 234.666C778.073 245.701 780.563 255.76 785.543 264.842C775.973 274.705 762.545 279.637 745.26 279.637C735.397 279.637 726.852 277.049 719.625 271.873C711.227 266.014 707.028 258.25 707.028 248.582V77.6348C711.715 74.9004 717.33 72.6543 723.873 70.8965C730.514 69.1387 737.203 68.2598 743.942 68.2598C755.172 68.2598 764.449 70.457 771.774 74.8516C780.074 80.0273 784.225 87.4492 784.225 97.1172V111.033C775.729 111.521 767.574 113.963 759.762 118.357C753.024 122.264 749.655 125.828 749.655 129.051C749.655 130.125 750.045 131.102 750.826 131.98C751.608 132.762 752.535 133.25 753.61 133.445C757.711 128.66 763.473 124.656 770.895 121.434C778.414 118.211 787.301 116.6 797.555 116.6C807.809 116.6 817.037 118.162 825.24 121.287C835.592 125.193 843.746 131.15 849.703 139.158C856.832 148.924 860.397 161.18 860.397 175.926L859.957 204.49ZM1023.73 204.49C1023.73 211.521 1024.51 217.186 1026.07 221.482C1027.63 225.779 1030.37 229.148 1034.27 231.59C1034.37 232.078 1034.42 233.006 1034.42 234.373V237.01C1034.42 250.877 1030.22 261.668 1021.82 269.383C1014.4 276.219 1005.22 279.637 994.283 279.637C986.862 279.637 980.074 277.879 973.922 274.363C967.77 270.848 963.375 265.77 960.739 259.129C957.418 259.129 955.758 260.74 955.758 263.963C955.758 266.697 957.467 269.773 960.885 273.191C954.537 277.488 944.967 279.637 932.174 279.637C914.108 279.637 899.655 274.754 888.815 264.988C878.073 255.125 872.701 241.404 872.701 223.826C872.701 206.15 878.414 192.479 889.84 182.811C900.289 174.119 913.815 169.773 930.416 169.773C936.08 169.773 941.549 170.164 946.823 170.945C950.338 171.629 952.242 172.02 952.535 172.117C952.828 171.141 952.975 170.311 952.975 169.627C952.975 167.088 950.826 165.379 946.53 164.5C942.233 163.621 936.617 163.182 929.684 163.182C914.938 163.182 902.34 166.16 891.891 172.117C887.106 164.012 884.713 153.758 884.713 141.355C884.713 134.324 885.592 129.1 887.35 125.682C894.381 122.459 903.317 119.627 914.156 117.186C924.996 114.646 936.422 113.377 948.434 113.377C973.239 113.377 991.989 118.797 1004.68 129.637C1017.38 140.477 1023.73 155.857 1023.73 175.779V204.49ZM947.701 211.668C943.6 211.668 941.549 213.523 941.549 217.234C941.549 220.75 943.942 222.508 948.727 222.508C952.047 222.508 954.489 221.727 956.051 220.164C957.614 218.504 958.395 215.672 958.395 211.668C958.395 211.668 954.83 211.668 947.701 211.668ZM1114.99 100.193V203.172C1114.99 217.723 1118.5 227.195 1125.53 231.59C1125.63 232.078 1125.68 233.006 1125.68 234.373V237.01C1125.68 250.975 1122.12 261.57 1114.99 268.797C1107.96 276.023 1097.95 279.637 1084.96 279.637C1071.97 279.637 1061.67 276.023 1054.05 268.797C1044.97 260.203 1040.43 247.215 1040.43 229.832V77.6348C1050.68 71.3848 1062.4 68.2598 1075.58 68.2598C1088.86 68.2598 1098.73 71.0918 1105.17 76.7559C1111.72 82.3223 1114.99 90.1348 1114.99 100.193ZM1206.98 100.193V203.172C1206.98 217.723 1210.49 227.195 1217.53 231.59C1217.62 232.078 1217.67 233.006 1217.67 234.373V237.01C1217.67 250.975 1214.11 261.57 1206.98 268.797C1199.95 276.023 1189.94 279.637 1176.95 279.637C1163.96 279.637 1153.66 276.023 1146.04 268.797C1136.96 260.203 1132.42 247.215 1132.42 229.832V77.6348C1142.67 71.3848 1154.39 68.2598 1167.57 68.2598C1180.86 68.2598 1190.72 71.0918 1197.16 76.7559C1203.71 82.3223 1206.98 90.1348 1206.98 100.193ZM1298.39 195.408V221.043C1299.07 221.727 1300.19 222.068 1301.75 222.068C1303.32 222.068 1304.44 221.531 1305.12 220.457C1305.81 219.383 1306.15 217.527 1306.15 214.891V193.943C1306.15 184.568 1305.76 178.367 1304.98 175.34C1304.2 172.215 1302.73 170.652 1300.58 170.652C1299.22 170.652 1298.04 171.141 1297.07 172.117C1297.95 181.785 1298.39 189.549 1298.39 195.408ZM1243.6 260.301C1227.58 244.871 1219.58 223.973 1219.58 197.605C1219.58 171.141 1227.1 150.291 1242.14 135.057C1257.27 119.725 1277.1 112.059 1301.61 112.059C1326.12 112.059 1345.94 120.018 1361.08 135.936C1376.12 151.854 1383.64 172.605 1383.64 198.191C1383.64 223.68 1376.36 243.943 1361.81 258.982C1347.36 274.021 1327.68 281.541 1302.78 281.541C1277.88 281.541 1258.15 274.461 1243.6 260.301Z"/>
</mask>
<path d="M608.004 178.709C608.395 179.002 609.518 179.148 611.373 179.148C613.229 179.148 614.645 178.416 615.621 176.951C616.598 175.486 617.086 173.094 617.086 169.773V158.641C617.086 155.125 616.647 152.635 615.768 151.17C614.987 149.607 613.619 148.826 611.666 148.826C609.811 148.826 608.541 149.021 607.858 149.412C607.955 149.9 608.004 150.73 608.004 151.902V178.709ZM611.666 244.92V267.332C607.369 270.945 601.315 273.924 593.502 276.268C585.69 278.514 577.535 279.637 569.039 279.637C556.93 279.637 547.018 277.293 539.303 272.605C530.514 267.234 526.119 259.471 526.119 249.314V110.154C526.119 107.029 528.219 103.904 532.418 100.779C536.715 97.6543 542.623 94.8223 550.143 92.2832C566.256 86.8145 584.664 84.0801 605.367 84.0801C633.981 84.0801 656.783 91.209 673.776 105.467C690.768 119.725 699.264 138.914 699.264 163.035C699.264 187.059 691.598 205.76 676.266 219.139C661.52 231.834 641.061 238.182 614.889 238.182C608.932 238.182 602.535 237.498 595.699 236.131C588.961 234.666 584.42 233.396 582.076 232.322C581.295 233.104 580.905 234.178 580.905 235.545C580.905 240.525 591.158 243.65 611.666 244.92ZM859.957 204.49C859.957 211.521 860.739 217.186 862.301 221.482C863.864 225.779 866.598 229.148 870.504 231.59C870.602 232.078 870.651 233.006 870.651 234.373V237.01C870.651 250.486 866.744 260.984 858.932 268.504C851.217 275.926 841.207 279.637 828.903 279.637C816.696 279.637 806.783 276.17 799.166 269.236C790.28 261.326 785.836 249.314 785.836 233.201C785.836 226.365 786.129 220.359 786.715 215.184C787.399 209.91 787.838 206.15 788.033 203.904C788.326 201.658 788.619 199.559 788.912 197.605C789.205 195.652 789.352 192.771 789.352 188.963C789.352 185.154 788.815 182.42 787.74 180.76C786.764 179.1 785.348 178.27 783.492 178.27C781.735 178.27 780.172 178.66 778.805 179.441L780.709 203.318C778.951 213.182 778.073 223.631 778.073 234.666C778.073 245.701 780.563 255.76 785.543 264.842C775.973 274.705 762.545 279.637 745.26 279.637C735.397 279.637 726.852 277.049 719.625 271.873C711.227 266.014 707.028 258.25 707.028 248.582V77.6348C711.715 74.9004 717.33 72.6543 723.873 70.8965C730.514 69.1387 737.203 68.2598 743.942 68.2598C755.172 68.2598 764.449 70.457 771.774 74.8516C780.074 80.0273 784.225 87.4492 784.225 97.1172V111.033C775.729 111.521 767.574 113.963 759.762 118.357C753.024 122.264 749.655 125.828 749.655 129.051C749.655 130.125 750.045 131.102 750.826 131.98C751.608 132.762 752.535 133.25 753.61 133.445C757.711 128.66 763.473 124.656 770.895 121.434C778.414 118.211 787.301 116.6 797.555 116.6C807.809 116.6 817.037 118.162 825.24 121.287C835.592 125.193 843.746 131.15 849.703 139.158C856.832 148.924 860.397 161.18 860.397 175.926L859.957 204.49ZM1023.73 204.49C1023.73 211.521 1024.51 217.186 1026.07 221.482C1027.63 225.779 1030.37 229.148 1034.27 231.59C1034.37 232.078 1034.42 233.006 1034.42 234.373V237.01C1034.42 250.877 1030.22 261.668 1021.82 269.383C1014.4 276.219 1005.22 279.637 994.283 279.637C986.862 279.637 980.074 277.879 973.922 274.363C967.77 270.848 963.375 265.77 960.739 259.129C957.418 259.129 955.758 260.74 955.758 263.963C955.758 266.697 957.467 269.773 960.885 273.191C954.537 277.488 944.967 279.637 932.174 279.637C914.108 279.637 899.655 274.754 888.815 264.988C878.073 255.125 872.701 241.404 872.701 223.826C872.701 206.15 878.414 192.479 889.84 182.811C900.289 174.119 913.815 169.773 930.416 169.773C936.08 169.773 941.549 170.164 946.823 170.945C950.338 171.629 952.242 172.02 952.535 172.117C952.828 171.141 952.975 170.311 952.975 169.627C952.975 167.088 950.826 165.379 946.53 164.5C942.233 163.621 936.617 163.182 929.684 163.182C914.938 163.182 902.34 166.16 891.891 172.117C887.106 164.012 884.713 153.758 884.713 141.355C884.713 134.324 885.592 129.1 887.35 125.682C894.381 122.459 903.317 119.627 914.156 117.186C924.996 114.646 936.422 113.377 948.434 113.377C973.239 113.377 991.989 118.797 1004.68 129.637C1017.38 140.477 1023.73 155.857 1023.73 175.779V204.49ZM947.701 211.668C943.6 211.668 941.549 213.523 941.549 217.234C941.549 220.75 943.942 222.508 948.727 222.508C952.047 222.508 954.489 221.727 956.051 220.164C957.614 218.504 958.395 215.672 958.395 211.668C958.395 211.668 954.83 211.668 947.701 211.668ZM1114.99 100.193V203.172C1114.99 217.723 1118.5 227.195 1125.53 231.59C1125.63 232.078 1125.68 233.006 1125.68 234.373V237.01C1125.68 250.975 1122.12 261.57 1114.99 268.797C1107.96 276.023 1097.95 279.637 1084.96 279.637C1071.97 279.637 1061.67 276.023 1054.05 268.797C1044.97 260.203 1040.43 247.215 1040.43 229.832V77.6348C1050.68 71.3848 1062.4 68.2598 1075.58 68.2598C1088.86 68.2598 1098.73 71.0918 1105.17 76.7559C1111.72 82.3223 1114.99 90.1348 1114.99 100.193ZM1206.98 100.193V203.172C1206.98 217.723 1210.49 227.195 1217.53 231.59C1217.62 232.078 1217.67 233.006 1217.67 234.373V237.01C1217.67 250.975 1214.11 261.57 1206.98 268.797C1199.95 276.023 1189.94 279.637 1176.95 279.637C1163.96 279.637 1153.66 276.023 1146.04 268.797C1136.96 260.203 1132.42 247.215 1132.42 229.832V77.6348C1142.67 71.3848 1154.39 68.2598 1167.57 68.2598C1180.86 68.2598 1190.72 71.0918 1197.16 76.7559C1203.71 82.3223 1206.98 90.1348 1206.98 100.193ZM1298.39 195.408V221.043C1299.07 221.727 1300.19 222.068 1301.75 222.068C1303.32 222.068 1304.44 221.531 1305.12 220.457C1305.81 219.383 1306.15 217.527 1306.15 214.891V193.943C1306.15 184.568 1305.76 178.367 1304.98 175.34C1304.2 172.215 1302.73 170.652 1300.58 170.652C1299.22 170.652 1298.04 171.141 1297.07 172.117C1297.95 181.785 1298.39 189.549 1298.39 195.408ZM1243.6 260.301C1227.58 244.871 1219.58 223.973 1219.58 197.605C1219.58 171.141 1227.1 150.291 1242.14 135.057C1257.27 119.725 1277.1 112.059 1301.61 112.059C1326.12 112.059 1345.94 120.018 1361.08 135.936C1376.12 151.854 1383.64 172.605 1383.64 198.191C1383.64 223.68 1376.36 243.943 1361.81 258.982C1347.36 274.021 1327.68 281.541 1302.78 281.541C1277.88 281.541 1258.15 274.461 1243.6 260.301Z" fill="white"/>
<path d="M608.004 178.709H588.004V188.709L596.004 194.709L608.004 178.709ZM615.768 151.17L597.879 160.114L598.223 160.801L598.618 161.46L615.768 151.17ZM607.858 149.412L597.935 132.047L585.419 139.199L588.246 153.334L607.858 149.412ZM611.666 244.92H631.666V226.12L612.902 224.958L611.666 244.92ZM611.666 267.332L624.538 282.639L631.666 276.645V267.332H611.666ZM593.502 276.268L599.028 295.489L599.139 295.457L599.249 295.424L593.502 276.268ZM539.303 272.605L528.874 289.671L528.896 289.684L528.918 289.698L539.303 272.605ZM532.418 100.779L520.655 84.6046L520.566 84.6691L520.478 84.7346L532.418 100.779ZM550.143 92.2832L556.541 111.232L556.556 111.227L556.571 111.222L550.143 92.2832ZM676.266 219.139L689.315 234.295L689.365 234.252L689.416 234.208L676.266 219.139ZM595.699 236.131L591.451 255.674L591.614 255.71L591.777 255.742L595.699 236.131ZM582.076 232.322L590.41 214.141L577.768 208.347L567.934 218.18L582.076 232.322ZM608.004 178.709L596.004 194.709C598.852 196.845 601.597 197.742 602.858 198.108C604.348 198.541 605.658 198.754 606.553 198.871C608.338 199.103 610.051 199.148 611.373 199.148V179.148V159.148C610.84 159.148 611.064 159.12 611.726 159.207C612.06 159.25 612.9 159.372 614.011 159.694C614.893 159.951 617.352 160.72 620.004 162.709L608.004 178.709ZM611.373 179.148V199.148C619.485 199.148 627.344 195.423 632.262 188.045L615.621 176.951L598.98 165.857C600.171 164.071 602.032 162.183 604.638 160.835C607.203 159.508 609.628 159.148 611.373 159.148V179.148ZM615.621 176.951L632.262 188.045C636.64 181.478 637.086 174.069 637.086 169.773H617.086H597.086C597.086 170.534 597.023 170.552 597.124 170.059C597.21 169.635 597.595 167.936 598.98 165.857L615.621 176.951ZM617.086 169.773H637.086V158.641H617.086H597.086V169.773H617.086ZM617.086 158.641H637.086C637.086 154.595 636.785 147.326 632.918 140.88L615.768 151.17L598.618 161.46C597.944 160.337 597.571 159.384 597.371 158.785C597.168 158.178 597.087 157.76 597.061 157.612C597.017 157.363 597.086 157.634 597.086 158.641H617.086ZM615.768 151.17L633.656 142.226C631.701 138.314 628.561 134.608 624.079 132.047C619.728 129.561 615.295 128.826 611.666 128.826V148.826V168.826C609.99 168.826 607.218 168.482 604.234 166.777C601.119 164.997 599.054 162.463 597.879 160.114L615.768 151.17ZM611.666 148.826V128.826C610.126 128.826 608.257 128.901 606.281 129.205C604.559 129.47 601.325 130.11 597.935 132.047L607.858 149.412L617.78 166.777C616.312 167.616 615.036 168.069 614.227 168.312C613.392 168.563 612.738 168.683 612.364 168.74C611.658 168.849 611.351 168.826 611.666 168.826V148.826ZM607.858 149.412L588.246 153.334C588.127 152.739 588.07 152.286 588.044 152.051C588.016 151.799 588.005 151.631 588.002 151.575C587.996 151.478 588.004 151.564 588.004 151.902H608.004H628.004C628.004 150.699 627.993 148.107 627.469 145.49L607.858 149.412ZM608.004 151.902H588.004V178.709H608.004H628.004V151.902H608.004ZM611.666 244.92H591.666V267.332H611.666H631.666V244.92H611.666ZM611.666 267.332L598.794 252.025C597.307 253.276 594.042 255.225 587.755 257.111L593.502 276.268L599.249 295.424C608.588 292.623 617.432 288.615 624.538 282.639L611.666 267.332ZM593.502 276.268L587.976 257.046C582.04 258.753 575.751 259.637 569.039 259.637V279.637V299.637C579.32 299.637 589.34 298.274 599.028 295.489L593.502 276.268ZM569.039 279.637V259.637C559.381 259.637 553.378 257.755 549.688 255.513L539.303 272.605L528.918 289.698C540.658 296.831 554.479 299.637 569.039 299.637V279.637ZM539.303 272.605L549.732 255.54C546.785 253.739 546.119 252.383 546.119 249.314H526.119H506.119C506.119 266.558 514.243 280.73 528.874 289.671L539.303 272.605ZM526.119 249.314H546.119V110.154H526.119H506.119V249.314H526.119ZM526.119 110.154H546.119C546.119 113.317 545.001 115.57 544.295 116.621C543.692 117.518 543.422 117.521 544.358 116.824L532.418 100.779L520.478 84.7346C514.596 89.1116 506.119 97.4268 506.119 110.154H526.119ZM532.418 100.779L544.182 116.954C546.247 115.452 550.091 113.41 556.541 111.232L550.143 92.2832L543.744 73.3343C535.156 76.2344 527.184 79.8564 520.655 84.6046L532.418 100.779ZM550.143 92.2832L556.571 111.222C570.221 106.589 586.393 104.08 605.367 104.08V84.0801V64.0801C582.936 64.0801 562.291 67.0396 543.715 73.3443L550.143 92.2832ZM605.367 84.0801V104.08C630.668 104.08 648.467 110.339 660.92 120.788L673.776 105.467L686.631 90.1458C665.1 72.079 637.294 64.0801 605.367 64.0801V84.0801ZM673.776 105.467L660.92 120.788C672.952 130.884 679.264 144.239 679.264 163.035H699.264H719.264C719.264 133.589 708.583 108.565 686.631 90.1458L673.776 105.467ZM699.264 163.035H679.264C679.264 182.43 673.3 195.183 663.116 204.069L676.266 219.139L689.416 234.208C709.896 216.336 719.264 191.688 719.264 163.035H699.264ZM676.266 219.139L663.217 203.982C653.189 212.615 637.937 218.182 614.889 218.182V238.182V258.182C644.185 258.182 669.85 251.053 689.315 234.295L676.266 219.139ZM614.889 238.182V218.182C610.449 218.182 605.378 217.671 599.622 216.519L595.699 236.131L591.777 255.742C599.692 257.326 607.415 258.182 614.889 258.182V238.182ZM595.699 236.131L599.948 216.587C596.804 215.904 594.391 215.313 592.625 214.819C590.683 214.276 590.15 214.022 590.41 214.141L582.076 232.322L573.743 250.504C578.324 252.603 584.892 254.249 591.451 255.674L595.699 236.131ZM582.076 232.322L567.934 218.18C562.554 223.561 560.905 230.208 560.905 235.545H580.905H600.905C600.905 238.147 600.037 242.646 596.219 246.464L582.076 232.322ZM580.905 235.545H560.905C560.905 244.709 565.963 251.096 570.425 254.622C574.519 257.859 579.146 259.652 582.764 260.755C590.185 263.017 599.763 264.221 610.431 264.882L611.666 244.92L612.902 224.958C603.062 224.349 597.259 223.356 594.425 222.493C592.917 222.033 593.699 222.032 595.23 223.242C597.128 224.743 600.905 228.871 600.905 235.545H580.905ZM859.957 204.49L839.96 204.183L839.957 204.336V204.49H859.957ZM870.504 231.59L890.116 227.668L888.423 219.204L881.104 214.63L870.504 231.59ZM858.932 268.504L872.798 282.917L872.801 282.914L858.932 268.504ZM799.166 269.236L812.629 254.446L812.547 254.371L812.464 254.297L799.166 269.236ZM786.715 215.184L766.881 212.613L766.86 212.773L766.842 212.934L786.715 215.184ZM788.033 203.904L768.201 201.318L768.146 201.744L768.109 202.172L788.033 203.904ZM787.74 180.76L770.502 190.9L770.718 191.267L770.949 191.625L787.74 180.76ZM778.805 179.441L768.882 162.077L757.859 168.376L758.868 181.031L778.805 179.441ZM780.709 203.318L800.399 206.827L800.851 204.294L800.646 201.728L780.709 203.318ZM785.543 264.842L799.897 278.769L810.179 268.172L803.079 255.225L785.543 264.842ZM719.625 271.873L731.271 255.613L731.17 255.541L731.069 255.471L719.625 271.873ZM707.028 77.6348L696.95 60.3592L687.028 66.1474V77.6348H707.028ZM723.873 70.8965L718.755 51.5624L718.72 51.5718L718.684 51.5814L723.873 70.8965ZM771.774 74.8516L782.356 57.8804L782.21 57.7898L782.064 57.7017L771.774 74.8516ZM784.225 111.033L785.372 131L804.225 129.917V111.033H784.225ZM759.762 118.357L749.957 100.926L749.844 100.99L749.731 101.055L759.762 118.357ZM750.826 131.98L735.878 145.268L736.269 145.707L736.684 146.123L750.826 131.98ZM753.61 133.445L750.032 153.123L761.325 155.176L768.795 146.461L753.61 133.445ZM770.895 121.434L763.016 103.051L762.973 103.069L762.929 103.088L770.895 121.434ZM825.24 121.287L818.121 139.977L818.15 139.988L818.179 139.999L825.24 121.287ZM849.703 139.158L865.857 127.366L865.804 127.293L865.75 127.221L849.703 139.158ZM860.397 175.926L880.394 176.233L880.397 176.08V175.926H860.397ZM859.957 204.49H839.957C839.957 212.735 840.837 220.981 843.505 228.317L862.301 221.482L881.097 214.648C880.64 213.39 879.957 210.308 879.957 204.49H859.957ZM862.301 221.482L843.505 228.317C846.606 236.843 852.243 243.762 859.904 248.55L870.504 231.59L881.104 214.63C881.048 214.595 881.011 214.569 880.99 214.553C880.969 214.537 880.961 214.53 880.964 214.533C880.968 214.536 880.979 214.546 880.996 214.564C881.013 214.582 881.032 214.603 881.053 214.629C881.073 214.654 881.092 214.679 881.107 214.702C881.123 214.725 881.133 214.742 881.139 214.752C881.144 214.762 881.143 214.761 881.136 214.745C881.129 214.73 881.115 214.698 881.097 214.648L862.301 221.482ZM870.504 231.59L850.893 235.512C850.819 235.144 850.771 234.839 850.74 234.622C850.708 234.4 850.687 234.222 850.674 234.096C850.65 233.856 850.642 233.712 850.642 233.703C850.641 233.696 850.651 233.893 850.651 234.373H870.651H890.651C890.651 233.212 890.658 230.376 890.116 227.668L870.504 231.59ZM870.651 234.373H850.651V237.01H870.651H890.651V234.373H870.651ZM870.651 237.01H850.651C850.651 246.455 848.049 251.22 845.062 254.094L858.932 268.504L872.801 282.914C885.44 270.749 890.651 254.518 890.651 237.01H870.651ZM858.932 268.504L845.066 254.091C841.637 257.389 836.87 259.637 828.903 259.637V279.637V299.637C845.545 299.637 860.797 294.462 872.798 282.917L858.932 268.504ZM828.903 279.637V259.637C820.699 259.637 815.9 257.424 812.629 254.446L799.166 269.236L785.703 284.027C797.667 294.916 812.692 299.637 828.903 299.637V279.637ZM799.166 269.236L812.464 254.297C809.201 251.393 805.836 245.724 805.836 233.201H785.836H765.836C765.836 252.905 771.358 271.259 785.869 284.175L799.166 269.236ZM785.836 233.201H805.836C805.836 226.9 806.108 221.674 806.588 217.433L786.715 215.184L766.842 212.934C766.15 219.045 765.836 225.831 765.836 233.201H785.836ZM786.715 215.184L806.549 217.755C807.234 212.474 807.723 208.344 807.958 205.637L788.033 203.904L768.109 202.172C767.953 203.957 767.564 207.347 766.881 212.613L786.715 215.184ZM788.033 203.904L807.865 206.491C808.144 204.354 808.42 202.382 808.691 200.572L788.912 197.605L769.134 194.639C768.819 196.735 768.509 198.963 768.201 201.318L788.033 203.904ZM788.912 197.605L808.691 200.572C809.21 197.111 809.352 193.032 809.352 188.963H789.352H769.352C769.352 192.511 769.2 194.194 769.134 194.639L788.912 197.605ZM789.352 188.963H809.352C809.352 184.295 808.884 176.621 804.532 169.895L787.74 180.76L770.949 191.625C770.278 190.588 769.888 189.692 769.668 189.091C769.447 188.489 769.355 188.07 769.324 187.911C769.271 187.642 769.352 187.918 769.352 188.963H789.352ZM787.74 180.76L804.979 170.619C800.577 163.136 792.76 158.27 783.492 158.27V178.27V198.27C781.338 198.27 778.575 197.754 775.832 196.146C773.124 194.559 771.441 192.497 770.502 190.9L787.74 180.76ZM783.492 178.27V158.27C778.668 158.27 773.611 159.374 768.882 162.077L778.805 179.441L788.728 196.806C786.733 197.946 784.801 198.27 783.492 198.27V178.27ZM778.805 179.441L758.868 181.031L760.773 204.908L780.709 203.318L800.646 201.728L798.742 177.851L778.805 179.441ZM780.709 203.318L761.019 199.809C759.036 210.941 758.073 222.571 758.073 234.666H778.073H798.073C798.073 224.69 798.867 215.423 800.399 206.827L780.709 203.318ZM778.073 234.666H758.073C758.073 248.836 761.304 262.236 768.007 274.458L785.543 264.842L803.079 255.225C799.821 249.283 798.073 242.566 798.073 234.666H778.073ZM785.543 264.842L771.19 250.914C766.303 255.951 758.613 259.637 745.26 259.637V279.637V299.637C766.478 299.637 785.643 293.46 799.897 278.769L785.543 264.842ZM745.26 279.637V259.637C739.094 259.637 734.731 258.092 731.271 255.613L719.625 271.873L707.98 288.133C718.972 296.006 731.699 299.637 745.26 299.637V279.637ZM719.625 271.873L731.069 255.471C727.657 253.09 727.028 251.268 727.028 248.582H707.028H687.028C687.028 265.232 694.797 278.937 708.182 288.276L719.625 271.873ZM707.028 248.582H727.028V77.6348H707.028H687.028V248.582H707.028ZM707.028 77.6348L717.105 94.9103C719.937 93.2585 723.827 91.618 729.062 90.2116L723.873 70.8965L718.684 51.5814C710.833 53.6906 703.494 56.5422 696.95 60.3592L707.028 77.6348ZM723.873 70.8965L728.991 90.2306C733.994 88.9062 738.964 88.2598 743.942 88.2598V68.2598V48.2598C735.442 48.2598 727.033 49.3712 718.755 51.5624L723.873 70.8965ZM743.942 68.2598V88.2598C752.66 88.2598 758.1 89.9714 761.484 92.0014L771.774 74.8516L782.064 57.7017C770.799 50.9427 757.685 48.2598 743.942 48.2598V68.2598ZM771.774 74.8516L761.192 91.8227C762.914 92.8967 763.461 93.7119 763.656 94.0614C763.846 94.4005 764.225 95.2261 764.225 97.1172H784.225H804.225C804.225 80.4468 796.43 66.656 782.356 57.8804L771.774 74.8516ZM784.225 97.1172H764.225V111.033H784.225H804.225V97.1172H784.225ZM784.225 111.033L783.077 91.0661C771.378 91.7385 760.279 95.1196 749.957 100.926L759.762 118.357L769.567 135.789C774.87 132.806 780.08 131.304 785.372 131L784.225 111.033ZM759.762 118.357L749.731 101.055C745.552 103.477 741.194 106.469 737.647 110.222C734.237 113.829 729.655 120.218 729.655 129.051H749.655H769.655C769.655 131.828 768.911 134.03 768.201 135.462C767.526 136.821 766.856 137.551 766.716 137.699C766.558 137.866 766.664 137.723 767.228 137.307C767.774 136.903 768.604 136.349 769.793 135.66L759.762 118.357ZM749.655 129.051H729.655C729.655 135.502 732.176 141.103 735.878 145.268L750.826 131.98L765.775 118.693C766.741 119.78 767.758 121.263 768.517 123.161C769.287 125.086 769.655 127.099 769.655 129.051H749.655ZM750.826 131.98L736.684 146.123C740.305 149.744 744.904 152.19 750.032 153.123L753.61 133.445L757.187 113.768C760.166 114.31 762.91 115.78 764.969 117.838L750.826 131.98ZM753.61 133.445L768.795 146.461C770.447 144.534 773.455 142.126 778.86 139.779L770.895 121.434L762.929 103.088C753.491 107.187 744.975 112.787 738.424 120.429L753.61 133.445ZM770.895 121.434L778.773 139.816C783.258 137.894 789.346 136.6 797.555 136.6V116.6V96.5996C785.256 96.5996 773.57 98.5276 763.016 103.051L770.895 121.434ZM797.555 116.6V136.6C805.777 136.6 812.539 137.85 818.121 139.977L825.24 121.287L832.36 102.597C821.536 98.4738 809.84 96.5996 797.555 96.5996V116.6ZM825.24 121.287L818.179 139.999C825.352 142.706 830.228 146.487 833.657 151.095L849.703 139.158L865.75 127.221C857.264 115.814 845.833 107.681 832.302 102.575L825.24 121.287ZM849.703 139.158L833.55 150.95C837.672 156.598 840.397 164.469 840.397 175.926H860.397H880.397C880.397 157.89 875.992 141.25 865.857 127.366L849.703 139.158ZM860.397 175.926L840.399 175.618L839.96 204.183L859.957 204.49L879.955 204.798L880.394 176.233L860.397 175.926ZM1034.27 231.59L1053.89 227.668L1052.19 219.204L1044.87 214.63L1034.27 231.59ZM1021.82 269.383L1008.29 254.654L1008.28 254.663L1008.27 254.672L1021.82 269.383ZM960.739 259.129L979.327 251.748L974.316 239.129H960.739V259.129ZM960.885 273.191L972.096 289.754L992.154 276.176L975.027 259.049L960.885 273.191ZM888.815 264.988L875.288 279.72L875.358 279.784L875.428 279.848L888.815 264.988ZM889.84 182.811L877.051 167.434L876.986 167.488L876.921 167.543L889.84 182.811ZM946.823 170.945L950.64 151.313L950.198 151.227L949.753 151.161L946.823 170.945ZM952.535 172.117L946.211 191.091L965.768 197.61L971.692 177.864L952.535 172.117ZM891.891 172.117L874.668 182.285L884.683 199.248L901.796 189.492L891.891 172.117ZM887.35 125.682L879.017 107.5L872.728 110.383L869.564 116.535L887.35 125.682ZM914.156 117.186L918.551 136.697L918.634 136.678L918.718 136.658L914.156 117.186ZM956.051 220.164L970.193 234.306L970.407 234.092L970.615 233.871L956.051 220.164ZM958.395 211.668H978.395V191.668H958.395V211.668ZM1023.73 204.49H1003.73C1003.73 212.735 1004.61 220.981 1007.27 228.317L1026.07 221.482L1044.87 214.648C1044.41 213.39 1043.73 210.308 1043.73 204.49H1023.73ZM1026.07 221.482L1007.27 228.317C1010.38 236.843 1016.01 243.762 1023.67 248.55L1034.27 231.59L1044.87 214.63C1044.82 214.595 1044.78 214.569 1044.76 214.553C1044.74 214.537 1044.73 214.53 1044.73 214.533C1044.74 214.536 1044.75 214.546 1044.77 214.564C1044.78 214.582 1044.8 214.603 1044.82 214.629C1044.84 214.654 1044.86 214.679 1044.88 214.702C1044.89 214.725 1044.9 214.742 1044.91 214.752C1044.91 214.762 1044.91 214.761 1044.91 214.745C1044.9 214.73 1044.88 214.698 1044.87 214.648L1026.07 221.482ZM1034.27 231.59L1014.66 235.512C1014.59 235.144 1014.54 234.839 1014.51 234.622C1014.48 234.4 1014.46 234.222 1014.44 234.096C1014.42 233.856 1014.41 233.712 1014.41 233.703C1014.41 233.696 1014.42 233.893 1014.42 234.373H1034.42H1054.42C1054.42 233.212 1054.43 230.376 1053.89 227.668L1034.27 231.59ZM1034.42 234.373H1014.42V237.01H1034.42H1054.42V234.373H1034.42ZM1034.42 237.01H1014.42C1014.42 246.585 1011.69 251.528 1008.29 254.654L1021.82 269.383L1035.35 284.112C1048.75 271.807 1054.42 255.169 1054.42 237.01H1034.42ZM1021.82 269.383L1008.27 254.672C1004.87 257.808 1000.66 259.637 994.283 259.637V279.637V299.637C1009.78 299.637 1023.93 294.63 1035.37 284.094L1021.82 269.383ZM994.283 279.637V259.637C990.171 259.637 986.83 258.704 983.845 256.998L973.922 274.363L963.999 291.728C973.319 297.054 983.553 299.637 994.283 299.637V279.637ZM973.922 274.363L983.845 256.998C981.665 255.753 980.305 254.213 979.327 251.748L960.739 259.129L942.15 266.51C946.445 277.326 953.875 285.943 963.999 291.728L973.922 274.363ZM960.739 259.129V239.129C956.143 239.129 948.995 240.239 943.074 245.986C937.041 251.841 935.758 259.115 935.758 263.963H955.758H975.758C975.758 265.589 975.305 270.446 970.933 274.689C966.671 278.825 962.014 279.129 960.739 279.129V259.129ZM955.758 263.963H935.758C935.758 274.841 942.226 282.817 946.743 287.334L960.885 273.191L975.027 259.049C974.18 258.202 974.209 258.044 974.523 258.608C974.857 259.209 975.758 261.092 975.758 263.963H955.758ZM960.885 273.191L949.674 256.629C948.184 257.637 943.375 259.637 932.174 259.637V279.637V299.637C946.559 299.637 960.891 297.339 972.096 289.754L960.885 273.191ZM932.174 279.637V259.637C917.823 259.637 908.547 255.846 902.201 250.129L888.815 264.988L875.428 279.848C890.762 293.662 910.392 299.637 932.174 299.637V279.637ZM888.815 264.988L902.341 250.256C896.561 244.949 892.701 237.05 892.701 223.826H872.701H852.701C852.701 245.759 859.584 265.301 875.288 279.72L888.815 264.988ZM872.701 223.826H892.701C892.701 210.856 896.651 203.246 902.759 198.078L889.84 182.811L876.921 167.543C860.177 181.711 852.701 201.445 852.701 223.826H872.701ZM889.84 182.811L902.63 198.187C908.741 193.104 917.415 189.773 930.416 189.773V169.773V149.773C910.215 149.773 891.838 155.134 877.051 167.434L889.84 182.811ZM930.416 169.773V189.773C935.16 189.773 939.647 190.1 943.892 190.729L946.823 170.945L949.753 151.161C943.452 150.228 937.001 149.773 930.416 149.773V169.773ZM946.823 170.945L943.005 190.578C944.741 190.915 946.017 191.168 946.869 191.343C947.302 191.432 947.556 191.486 947.675 191.513C947.739 191.527 947.693 191.517 947.58 191.49C947.522 191.475 947.393 191.443 947.219 191.396C947.089 191.361 946.706 191.256 946.211 191.091L952.535 172.117L958.86 153.144C957.258 152.609 955.093 152.197 954.906 152.159C953.853 151.943 952.419 151.659 950.64 151.313L946.823 170.945ZM952.535 172.117L971.692 177.864C972.298 175.844 972.975 172.96 972.975 169.627H952.975H932.975C932.975 168.572 933.085 167.766 933.169 167.286C933.256 166.796 933.346 166.479 933.379 166.37L952.535 172.117ZM952.975 169.627H972.975C972.975 161.716 969.214 155.084 963.814 150.789C959.23 147.143 954.123 145.639 950.537 144.906L946.53 164.5L942.522 184.094C943.233 184.24 941.348 184.03 938.913 182.093C937.539 181 935.942 179.311 934.725 176.905C933.484 174.452 932.975 171.914 932.975 169.627H952.975ZM946.53 164.5L950.537 144.906C944.391 143.648 937.284 143.182 929.684 143.182V163.182V183.182C935.95 183.182 940.074 183.594 942.522 184.094L946.53 164.5ZM929.684 163.182V143.182C912.244 143.182 896.064 146.716 881.986 154.742L891.891 172.117L901.796 189.492C908.616 185.604 917.632 183.182 929.684 183.182V163.182ZM891.891 172.117L909.114 161.95C906.636 157.754 904.713 151.286 904.713 141.355H884.713H864.713C864.713 156.229 867.575 170.27 874.668 182.285L891.891 172.117ZM884.713 141.355H904.713C904.713 138.615 904.889 136.709 905.095 135.481C905.312 134.19 905.48 134.16 905.136 134.829L887.35 125.682L869.564 116.535C865.593 124.256 864.713 133.369 864.713 141.355H884.713ZM887.35 125.682L895.683 143.863C901.036 141.41 908.533 138.953 918.551 136.697L914.156 117.186L909.762 97.6743C898.1 100.301 887.727 103.508 879.017 107.5L887.35 125.682ZM914.156 117.186L918.718 136.658C927.95 134.496 937.838 133.377 948.434 133.377V113.377V93.377C935.006 93.377 922.043 94.797 909.595 97.7126L914.156 117.186ZM948.434 113.377V133.377C970.721 133.377 984.025 138.296 991.697 144.847L1004.68 129.637L1017.67 114.427C999.952 99.2978 975.756 93.377 948.434 93.377V113.377ZM1004.68 129.637L991.697 144.847C999.075 151.146 1003.73 160.464 1003.73 175.779H1023.73H1043.73C1043.73 151.251 1035.68 129.807 1017.67 114.427L1004.68 129.637ZM1023.73 175.779H1003.73V204.49H1023.73H1043.73V175.779H1023.73ZM947.701 211.668V191.668C943.035 191.668 935.801 192.68 929.669 198.229C923.156 204.121 921.549 211.751 921.549 217.234H941.549H961.549C961.549 219.007 960.967 223.853 956.505 227.89C952.424 231.583 948.266 231.668 947.701 231.668V211.668ZM941.549 217.234H921.549C921.549 224.029 924.193 231.937 931.502 237.307C937.66 241.832 944.474 242.508 948.727 242.508V222.508V202.508C948.734 202.508 948.876 202.508 949.132 202.535C949.387 202.561 949.803 202.62 950.344 202.752C951.398 203.01 953.213 203.623 955.185 205.072C957.275 206.608 959.057 208.735 960.211 211.278C961.314 213.709 961.549 215.861 961.549 217.234H941.549ZM948.727 222.508V242.508C954.719 242.508 963.358 241.142 970.193 234.306L956.051 220.164L941.909 206.022C945.62 202.311 949.375 202.508 948.727 202.508V222.508ZM956.051 220.164L970.615 233.871C977.505 226.551 978.395 217.239 978.395 211.668H958.395H938.395C938.395 212.475 938.304 212.291 938.529 211.476C938.761 210.634 939.486 208.583 941.487 206.457L956.051 220.164ZM958.395 211.668C958.395 191.668 958.395 191.668 958.395 191.668C958.395 191.668 958.395 191.668 958.395 191.668C958.395 191.668 958.395 191.668 958.394 191.668C958.394 191.668 958.394 191.668 958.394 191.668C958.394 191.668 958.394 191.668 958.394 191.668C958.394 191.668 958.393 191.668 958.393 191.668C958.393 191.668 958.393 191.668 958.393 191.668C958.393 191.668 958.392 191.668 958.392 191.668C958.392 191.668 958.392 191.668 958.391 191.668C958.391 191.668 958.391 191.668 958.391 191.668C958.39 191.668 958.39 191.668 958.39 191.668C958.39 191.668 958.389 191.668 958.389 191.668C958.389 191.668 958.388 191.668 958.388 191.668C958.388 191.668 958.387 191.668 958.387 191.668C958.386 191.668 958.386 191.668 958.386 191.668C958.385 191.668 958.385 191.668 958.384 191.668C958.384 191.668 958.383 191.668 958.383 191.668C958.383 191.668 958.382 191.668 958.382 191.668C958.381 191.668 958.381 191.668 958.38 191.668C958.38 191.668 958.379 191.668 958.378 191.668C958.378 191.668 958.377 191.668 958.377 191.668C958.376 191.668 958.376 191.668 958.375 191.668C958.374 191.668 958.374 191.668 958.373 191.668C958.373 191.668 958.372 191.668 958.371 191.668C958.371 191.668 958.37 191.668 958.369 191.668C958.369 191.668 958.368 191.668 958.367 191.668C958.366 191.668 958.366 191.668 958.365 191.668C958.364 191.668 958.364 191.668 958.363 191.668C958.362 191.668 958.361 191.668 958.36 191.668C958.36 191.668 958.359 191.668 958.358 191.668C958.357 191.668 958.356 191.668 958.356 191.668C958.355 191.668 958.354 191.668 958.353 191.668C958.352 191.668 958.351 191.668 958.35 191.668C958.349 191.668 958.349 191.668 958.348 191.668C958.347 191.668 958.346 191.668 958.345 191.668C958.344 191.668 958.343 191.668 958.342 191.668C958.341 191.668 958.34 191.668 958.339 191.668C958.338 191.668 958.337 191.668 958.336 191.668C958.335 191.668 958.334 191.668 958.333 191.668C958.332 191.668 958.331 191.668 958.329 191.668C958.328 191.668 958.327 191.668 958.326 191.668C958.325 191.668 958.324 191.668 958.323 191.668C958.322 191.668 958.321 191.668 958.319 191.668C958.318 191.668 958.317 191.668 958.316 191.668C958.315 191.668 958.313 191.668 958.312 191.668C958.311 191.668 958.31 191.668 958.308 191.668C958.307 191.668 958.306 191.668 958.305 191.668C958.303 191.668 958.302 191.668 958.301 191.668C958.299 191.668 958.298 191.668 958.297 191.668C958.296 191.668 958.294 191.668 958.293 191.668C958.291 191.668 958.29 191.668 958.289 191.668C958.287 191.668 958.286 191.668 958.284 191.668C958.283 191.668 958.282 191.668 958.28 191.668C958.279 191.668 958.277 191.668 958.276 191.668C958.274 191.668 958.273 191.668 958.271 191.668C958.27 191.668 958.268 191.668 958.267 191.668C958.265 191.668 958.264 191.668 958.262 191.668C958.261 191.668 958.259 191.668 958.258 191.668C958.256 191.668 958.254 191.668 958.253 191.668C958.251 191.668 958.25 191.668 958.248 191.668C958.246 191.668 958.245 191.668 958.243 191.668C958.241 191.668 958.24 191.668 958.238 191.668C958.236 191.668 958.235 191.668 958.233 191.668C958.231 191.668 958.229 191.668 958.228 191.668C958.226 191.668 958.224 191.668 958.222 191.668C958.221 191.668 958.219 191.668 958.217 191.668C958.215 191.668 958.214 191.668 958.212 191.668C958.21 191.668 958.208 191.668 958.206 191.668C958.204 191.668 958.202 191.668 958.201 191.668C958.199 191.668 958.197 191.668 958.195 191.668C958.193 191.668 958.191 191.668 958.189 191.668C958.187 191.668 958.185 191.668 958.183 191.668C958.181 191.668 958.179 191.668 958.177 191.668C958.175 191.668 958.173 191.668 958.171 191.668C958.169 191.668 958.167 191.668 958.165 191.668C958.163 191.668 958.161 191.668 958.159 191.668C958.157 191.668 958.155 191.668 958.153 191.668C958.151 191.668 958.149 191.668 958.147 191.668C958.144 191.668 958.142 191.668 958.14 191.668C958.138 191.668 958.136 191.668 958.134 191.668C958.132 191.668 958.129 191.668 958.127 191.668C958.125 191.668 958.123 191.668 958.12 191.668C958.118 191.668 958.116 191.668 958.114 191.668C958.112 191.668 958.109 191.668 958.107 191.668C958.105 191.668 958.102 191.668 958.1 191.668C958.098 191.668 958.095 191.668 958.093 191.668C958.091 191.668 958.088 191.668 958.086 191.668C958.084 191.668 958.081 191.668 958.079 191.668C958.076 191.668 958.074 191.668 958.072 191.668C958.069 191.668 958.067 191.668 958.064 191.668C958.062 191.668 958.059 191.668 958.057 191.668C958.055 191.668 958.052 191.668 958.049 191.668C958.047 191.668 958.044 191.668 958.042 191.668C958.039 191.668 958.037 191.668 958.034 191.668C958.032 191.668 958.029 191.668 958.027 191.668C958.024 191.668 958.021 191.668 958.019 191.668C958.016 191.668 958.014 191.668 958.011 191.668C958.008 191.668 958.006 191.668 958.003 191.668C958 191.668 957.998 191.668 957.995 191.668C957.992 191.668 957.99 191.668 957.987 191.668C957.984 191.668 957.981 191.668 957.979 191.668C957.976 191.668 957.973 191.668 957.97 191.668C957.968 191.668 957.965 191.668 957.962 191.668C957.959 191.668 957.956 191.668 957.954 191.668C957.951 191.668 957.948 191.668 957.945 191.668C957.942 191.668 957.939 191.668 957.936 191.668C957.934 191.668 957.931 191.668 957.928 191.668C957.925 191.668 957.922 191.668 957.919 191.668C957.916 191.668 957.913 191.668 957.91 191.668C957.907 191.668 957.904 191.668 957.901 191.668C957.898 191.668 957.895 191.668 957.892 191.668C957.889 191.668 957.886 191.668 957.883 191.668C957.88 191.668 957.877 191.668 957.874 191.668C957.871 191.668 957.868 191.668 957.865 191.668C957.862 191.668 957.858 191.668 957.855 191.668C957.852 191.668 957.849 191.668 957.846 191.668C957.843 191.668 957.84 191.668 957.836 191.668C957.833 191.668 957.83 191.668 957.827 191.668C957.824 191.668 957.82 191.668 957.817 191.668C957.814 191.668 957.811 191.668 957.807 191.668C957.804 191.668 957.801 191.668 957.798 191.668C957.794 191.668 957.791 191.668 957.788 191.668C957.784 191.668 957.781 191.668 957.778 191.668C957.774 191.668 957.771 191.668 957.768 191.668C957.764 191.668 957.761 191.668 957.757 191.668C957.754 191.668 957.751 191.668 957.747 191.668C957.744 191.668 957.74 191.668 957.737 191.668C957.733 191.668 957.73 191.668 957.726 191.668C957.723 191.668 957.719 191.668 957.716 191.668C957.712 191.668 957.709 191.668 957.705 191.668C957.702 191.668 957.698 191.668 957.695 191.668C957.691 191.668 957.688 191.668 957.684 191.668C957.68 191.668 957.677 191.668 957.673 191.668C957.67 191.668 957.666 191.668 957.662 191.668C957.659 191.668 957.655 191.668 957.651 191.668C957.648 191.668 957.644 191.668 957.64 191.668C957.637 191.668 957.633 191.668 957.629 191.668C957.625 191.668 957.622 191.668 957.618 191.668C957.614 191.668 957.61 191.668 957.607 191.668C957.603 191.668 957.599 191.668 957.595 191.668C957.591 191.668 957.588 191.668 957.584 191.668C957.58 191.668 957.576 191.668 957.572 191.668C957.568 191.668 957.565 191.668 957.561 191.668C957.557 191.668 957.553 191.668 957.549 191.668C957.545 191.668 957.541 191.668 957.537 191.668C957.533 191.668 957.529 191.668 957.525 191.668C957.521 191.668 957.517 191.668 957.513 191.668C957.509 191.668 957.505 191.668 957.501 191.668C957.497 191.668 957.493 191.668 957.489 191.668C957.485 191.668 957.481 191.668 957.477 191.668C957.473 191.668 957.469 191.668 957.465 191.668C957.461 191.668 957.456 191.668 957.452 191.668C957.448 191.668 957.444 191.668 957.44 191.668C957.436 191.668 957.432 191.668 957.427 191.668C957.423 191.668 957.419 191.668 957.415 191.668C957.411 191.668 957.406 191.668 957.402 191.668C957.398 191.668 957.394 191.668 957.389 191.668C957.385 191.668 957.381 191.668 957.376 191.668C957.372 191.668 957.368 191.668 957.364 191.668C957.359 191.668 957.355 191.668 957.35 191.668C957.346 191.668 957.342 191.668 957.337 191.668C957.333 191.668 957.329 191.668 957.324 191.668C957.32 191.668 957.315 191.668 957.311 191.668C957.307 191.668 957.302 191.668 957.298 191.668C957.293 191.668 957.289 191.668 957.284 191.668C957.28 191.668 957.275 191.668 957.271 191.668C957.266 191.668 957.262 191.668 957.257 191.668C957.253 191.668 957.248 191.668 957.243 191.668C957.239 191.668 957.234 191.668 957.23 191.668C957.225 191.668 957.221 191.668 957.216 191.668C957.211 191.668 957.207 191.668 957.202 191.668C957.197 191.668 957.193 191.668 957.188 191.668C957.183 191.668 957.179 191.668 957.174 191.668C957.169 191.668 957.164 191.668 957.16 191.668C957.155 191.668 957.15 191.668 957.146 191.668C957.141 191.668 957.136 191.668 957.131 191.668C957.126 191.668 957.122 191.668 957.117 191.668C957.112 191.668 957.107 191.668 957.102 191.668C957.097 191.668 957.093 191.668 957.088 191.668C957.083 191.668 957.078 191.668 957.073 191.668C957.068 191.668 957.063 191.668 957.058 191.668C957.053 191.668 957.049 191.668 957.044 191.668C957.039 191.668 957.034 191.668 957.029 191.668C957.024 191.668 957.019 191.668 957.014 191.668C957.009 191.668 957.004 191.668 956.999 191.668C956.994 191.668 956.989 191.668 956.984 191.668C956.978 191.668 956.973 191.668 956.968 191.668C956.963 191.668 956.958 191.668 956.953 191.668C956.948 191.668 956.943 191.668 956.938 191.668C956.932 191.668 956.927 191.668 956.922 191.668C956.917 191.668 956.912 191.668 956.907 191.668C956.901 191.668 956.896 191.668 956.891 191.668C956.886 191.668 956.881 191.668 956.875 191.668C956.87 191.668 956.865 191.668 956.86 191.668C956.854 191.668 956.849 191.668 956.844 191.668C956.838 191.668 956.833 191.668 956.828 191.668C956.822 191.668 956.817 191.668 956.812 191.668C956.806 191.668 956.801 191.668 956.796 191.668C956.79 191.668 956.785 191.668 956.779 191.668C956.774 191.668 956.769 191.668 956.763 191.668C956.758 191.668 956.752 191.668 956.747 191.668C956.741 191.668 956.736 191.668 956.73 191.668C956.725 191.668 956.719 191.668 956.714 191.668C956.708 191.668 956.703 191.668 956.697 191.668C956.692 191.668 956.686 191.668 956.68 191.668C956.675 191.668 956.669 191.668 956.664 191.668C956.658 191.668 956.653 191.668 956.647 191.668C956.641 191.668 956.636 191.668 956.63 191.668C956.624 191.668 956.619 191.668 956.613 191.668C956.607 191.668 956.602 191.668 956.596 191.668C956.59 191.668 956.584 191.668 956.579 191.668C956.573 191.668 956.567 191.668 956.561 191.668C956.556 191.668 956.55 191.668 956.544 191.668C956.538 191.668 956.532 191.668 956.527 191.668C956.521 191.668 956.515 191.668 956.509 191.668C956.503 191.668 956.497 191.668 956.492 191.668C956.486 191.668 956.48 191.668 956.474 191.668C956.468 191.668 956.462 191.668 956.456 191.668C956.45 191.668 956.444 191.668 956.438 191.668C956.432 191.668 956.426 191.668 956.42 191.668C956.414 191.668 956.408 191.668 956.402 191.668C956.396 191.668 956.39 191.668 956.384 191.668C956.378 191.668 956.372 191.668 956.366 191.668C956.36 191.668 956.354 191.668 956.348 191.668C956.342 191.668 956.336 191.668 956.33 191.668C956.324 191.668 956.317 191.668 956.311 191.668C956.305 191.668 956.299 191.668 956.293 191.668C956.287 191.668 956.28 191.668 956.274 191.668C956.268 191.668 956.262 191.668 956.256 191.668C956.249 191.668 956.243 191.668 956.237 191.668C956.231 191.668 956.224 191.668 956.218 191.668C956.212 191.668 956.206 191.668 956.199 191.668C956.193 191.668 956.187 191.668 956.18 191.668C956.174 191.668 956.168 191.668 956.161 191.668C956.155 191.668 956.148 191.668 956.142 191.668C956.136 191.668 956.129 191.668 956.123 191.668C956.116 191.668 956.11 191.668 956.104 191.668C956.097 191.668 956.091 191.668 956.084 191.668C956.078 191.668 956.071 191.668 956.065 191.668C956.058 191.668 956.052 191.668 956.045 191.668C956.039 191.668 956.032 191.668 956.026 191.668C956.019 191.668 956.012 191.668 956.006 191.668C955.999 191.668 955.993 191.668 955.986 191.668C955.979 191.668 955.973 191.668 955.966 191.668C955.96 191.668 955.953 191.668 955.946 191.668C955.94 191.668 955.933 191.668 955.926 191.668C955.92 191.668 955.913 191.668 955.906 191.668C955.899 191.668 955.893 191.668 955.886 191.668C955.879 191.668 955.872 191.668 955.866 191.668C955.859 191.668 955.852 191.668 955.845 191.668C955.838 191.668 955.832 191.668 955.825 191.668C955.818 191.668 955.811 191.668 955.804 191.668C955.797 191.668 955.791 191.668 955.784 191.668C955.777 191.668 955.77 191.668 955.763 191.668C955.756 191.668 955.749 191.668 955.742 191.668C955.735 191.668 955.728 191.668 955.721 191.668C955.714 191.668 955.707 191.668 955.701 191.668C955.694 191.668 955.687 191.668 955.68 191.668C955.672 191.668 955.665 191.668 955.658 191.668C955.651 191.668 955.644 191.668 955.637 191.668C955.63 191.668 955.623 191.668 955.616 191.668C955.609 191.668 955.602 191.668 955.595 191.668C955.588 191.668 955.58 191.668 955.573 191.668C955.566 191.668 955.559 191.668 955.552 191.668C955.545 191.668 955.537 191.668 955.53 191.668C955.523 191.668 955.516 191.668 955.508 191.668C955.501 191.668 955.494 191.668 955.487 191.668C955.479 191.668 955.472 191.668 955.465 191.668C955.458 191.668 955.45 191.668 955.443 191.668C955.436 191.668 955.428 191.668 955.421 191.668C955.414 191.668 955.406 191.668 955.399 191.668C955.392 191.668 955.384 191.668 955.377 191.668C955.369 191.668 955.362 191.668 955.355 191.668C955.347 191.668 955.34 191.668 955.332 191.668C955.325 191.668 955.317 191.668 955.31 191.668C955.302 191.668 955.295 191.668 955.287 191.668C955.28 191.668 955.272 191.668 955.265 191.668C955.257 191.668 955.25 191.668 955.242 191.668C955.235 191.668 955.227 191.668 955.219 191.668C955.212 191.668 955.204 191.668 955.197 191.668C955.189 191.668 955.181 191.668 955.174 191.668C955.166 191.668 955.159 191.668 955.151 191.668C955.143 191.668 955.135 191.668 955.128 191.668C955.12 191.668 955.112 191.668 955.105 191.668C955.097 191.668 955.089 191.668 955.081 191.668C955.074 191.668 955.066 191.668 955.058 191.668C955.05 191.668 955.043 191.668 955.035 191.668C955.027 191.668 955.019 191.668 955.011 191.668C955.003 191.668 954.996 191.668 954.988 191.668C954.98 191.668 954.972 191.668 954.964 191.668C954.956 191.668 954.948 191.668 954.94 191.668C954.933 191.668 954.925 191.668 954.917 191.668C954.909 191.668 954.901 191.668 954.893 191.668C954.885 191.668 954.877 191.668 954.869 191.668C954.861 191.668 954.853 191.668 954.845 191.668C954.837 191.668 954.829 191.668 954.821 191.668C954.813 191.668 954.805 191.668 954.797 191.668C954.788 191.668 954.78 191.668 954.772 191.668C954.764 191.668 954.756 191.668 954.748 191.668C954.74 191.668 954.732 191.668 954.724 191.668C954.715 191.668 954.707 191.668 954.699 191.668C954.691 191.668 954.683 191.668 954.674 191.668C954.666 191.668 954.658 191.668 954.65 191.668C954.641 191.668 954.633 191.668 954.625 191.668C954.617 191.668 954.608 191.668 954.6 191.668C954.592 191.668 954.583 191.668 954.575 191.668C954.567 191.668 954.559 191.668 954.55 191.668C954.542 191.668 954.533 191.668 954.525 191.668C954.517 191.668 954.508 191.668 954.5 191.668C954.492 191.668 954.483 191.668 954.475 191.668C954.466 191.668 954.458 191.668 954.449 191.668C954.441 191.668 954.432 191.668 954.424 191.668C954.415 191.668 954.407 191.668 954.398 191.668C954.39 191.668 954.381 191.668 954.373 191.668C954.364 191.668 954.356 191.668 954.347 191.668C954.339 191.668 954.33 191.668 954.321 191.668C954.313 191.668 954.304 191.668 954.296 191.668C954.287 191.668 954.278 191.668 954.27 191.668C954.261 191.668 954.252 191.668 954.244 191.668C954.235 191.668 954.226 191.668 954.218 191.668C954.209 191.668 954.2 191.668 954.192 191.668C954.183 191.668 954.174 191.668 954.165 191.668C954.157 191.668 954.148 191.668 954.139 191.668C954.13 191.668 954.121 191.668 954.113 191.668C954.104 191.668 954.095 191.668 954.086 191.668C954.077 191.668 954.068 191.668 954.06 191.668C954.051 191.668 954.042 191.668 954.033 191.668C954.024 191.668 954.015 191.668 954.006 191.668C953.997 191.668 953.988 191.668 953.979 191.668C953.97 191.668 953.962 191.668 953.953 191.668C953.944 191.668 953.935 191.668 953.926 191.668C953.917 191.668 953.908 191.668 953.899 191.668C953.889 191.668 953.88 191.668 953.871 191.668C953.862 191.668 953.853 191.668 953.844 191.668C953.835 191.668 953.826 191.668 953.817 191.668C953.808 191.668 953.799 191.668 953.79 191.668C953.78 191.668 953.771 191.668 953.762 191.668C953.753 191.668 953.744 191.668 953.735 191.668C953.725 191.668 953.716 191.668 953.707 191.668C953.698 191.668 953.688 191.668 953.679 191.668C953.67 191.668 953.661 191.668 953.651 191.668C953.642 191.668 953.633 191.668 953.624 191.668C953.614 191.668 953.605 191.668 953.596 191.668C953.586 191.668 953.577 191.668 953.568 191.668C953.558 191.668 953.549 191.668 953.54 191.668C953.53 191.668 953.521 191.668 953.511 191.668C953.502 191.668 953.492 191.668 953.483 191.668C953.474 191.668 953.464 191.668 953.455 191.668C953.445 191.668 953.436 191.668 953.426 191.668C953.417 191.668 953.407 191.668 953.398 191.668C953.388 191.668 953.379 191.668 953.369 191.668C953.36 191.668 953.35 191.668 953.34 191.668C953.331 191.668 953.321 191.668 953.312 191.668C953.302 191.668 953.293 191.668 953.283 191.668C953.273 191.668 953.264 191.668 953.254 191.668C953.244 191.668 953.235 191.668 953.225 191.668C953.215 191.668 953.206 191.668 953.196 191.668C953.186 191.668 953.176 191.668 953.167 191.668C953.157 191.668 953.147 191.668 953.137 191.668C953.128 191.668 953.118 191.668 953.108 191.668C953.098 191.668 953.089 191.668 953.079 191.668C953.069 191.668 953.059 191.668 953.049 191.668C953.039 191.668 953.03 191.668 953.02 191.668C953.01 191.668 953 191.668 952.99 191.668C952.98 191.668 952.97 191.668 952.96 191.668C952.95 191.668 952.94 191.668 952.93 191.668C952.921 191.668 952.911 191.668 952.901 191.668C952.891 191.668 952.881 191.668 952.871 191.668C952.861 191.668 952.851 191.668 952.841 191.668C952.83 191.668 952.82 191.668 952.81 191.668C952.8 191.668 952.79 191.668 952.78 191.668C952.77 191.668 952.76 191.668 952.75 191.668C952.74 191.668 952.73 191.668 952.719 191.668C952.709 191.668 952.699 191.668 952.689 191.668C952.679 191.668 952.669 191.668 952.658 191.668C952.648 191.668 952.638 191.668 952.628 191.668C952.618 191.668 952.607 191.668 952.597 191.668C952.587 191.668 952.577 191.668 952.566 191.668C952.556 191.668 952.546 191.668 952.535 191.668C952.525 191.668 952.515 191.668 952.504 191.668C952.494 191.668 952.484 191.668 952.473 191.668C952.463 191.668 952.453 191.668 952.442 191.668C952.432 191.668 952.421 191.668 952.411 191.668C952.401 191.668 952.39 191.668 952.38 191.668C952.369 191.668 952.359 191.668 952.348 191.668C952.338 191.668 952.327 191.668 952.317 191.668C952.306 191.668 952.296 191.668 952.285 191.668C952.275 191.668 952.264 191.668 952.254 191.668C952.243 191.668 952.233 191.668 952.222 191.668C952.212 191.668 952.201 191.668 952.19 191.668C952.18 191.668 952.169 191.668 952.158 191.668C952.148 191.668 952.137 191.668 952.127 191.668C952.116 191.668 952.105 191.668 952.095 191.668C952.084 191.668 952.073 191.668 952.062 191.668C952.052 191.668 952.041 191.668 952.03 191.668C952.019 191.668 952.009 191.668 951.998 191.668C951.987 191.668 951.976 191.668 951.966 191.668C951.955 191.668 951.944 191.668 951.933 191.668C951.922 191.668 951.911 191.668 951.901 191.668C951.89 191.668 951.879 191.668 951.868 191.668C951.857 191.668 951.846 191.668 951.835 191.668C951.824 191.668 951.814 191.668 951.803 191.668C951.792 191.668 951.781 191.668 951.77 191.668C951.759 191.668 951.748 191.668 951.737 191.668C951.726 191.668 951.715 191.668 951.704 191.668C951.693 191.668 951.682 191.668 951.671 191.668C951.66 191.668 951.649 191.668 951.638 191.668C951.627 191.668 951.615 191.668 951.604 191.668C951.593 191.668 951.582 191.668 951.571 191.668C951.56 191.668 951.549 191.668 951.538 191.668C951.526 191.668 951.515 191.668 951.504 191.668C951.493 191.668 951.482 191.668 951.471 191.668C951.459 191.668 951.448 191.668 951.437 191.668C951.426 191.668 951.414 191.668 951.403 191.668C951.392 191.668 951.381 191.668 951.369 191.668C951.358 191.668 951.347 191.668 951.335 191.668C951.324 191.668 951.313 191.668 951.302 191.668C951.29 191.668 951.279 191.668 951.267 191.668C951.256 191.668 951.245 191.668 951.233 191.668C951.222 191.668 951.211 191.668 951.199 191.668C951.188 191.668 951.176 191.668 951.165 191.668C951.153 191.668 951.142 191.668 951.13 191.668C951.119 191.668 951.107 191.668 951.096 191.668C951.084 191.668 951.073 191.668 951.061 191.668C951.05 191.668 951.038 191.668 951.027 191.668C951.015 191.668 951.004 191.668 950.992 191.668C950.98 191.668 950.969 191.668 950.957 191.668C950.946 191.668 950.934 191.668 950.922 191.668C950.911 191.668 950.899 191.668 950.887 191.668C950.876 191.668 950.864 191.668 950.852 191.668C950.841 191.668 950.829 191.668 950.817 191.668C950.806 191.668 950.794 191.668 950.782 191.668C950.77 191.668 950.759 191.668 950.747 191.668C950.735 191.668 950.723 191.668 950.711 191.668C950.7 191.668 950.688 191.668 950.676 191.668C950.664 191.668 950.652 191.668 950.64 191.668C950.629 191.668 950.617 191.668 950.605 191.668C950.593 191.668 950.581 191.668 950.569 191.668C950.557 191.668 950.545 191.668 950.533 191.668C950.521 191.668 950.509 191.668 950.497 191.668C950.485 191.668 950.474 191.668 950.462 191.668C950.45 191.668 950.438 191.668 950.426 191.668C950.413 191.668 950.401 191.668 950.389 191.668C950.377 191.668 950.365 191.668 950.353 191.668C950.341 191.668 950.329 191.668 950.317 191.668C950.305 191.668 950.293 191.668 950.281 191.668C950.268 191.668 950.256 191.668 950.244 191.668C950.232 191.668 950.22 191.668 950.208 191.668C950.195 191.668 950.183 191.668 950.171 191.668C950.159 191.668 950.147 191.668 950.134 191.668C950.122 191.668 950.11 191.668 950.098 191.668C950.085 191.668 950.073 191.668 950.061 191.668C950.049 191.668 950.036 191.668 950.024 191.668C950.012 191.668 949.999 191.668 949.987 191.668C949.975 191.668 949.962 191.668 949.95 191.668C949.937 191.668 949.925 191.668 949.913 191.668C949.9 191.668 949.888 191.668 949.875 191.668C949.863 191.668 949.851 191.668 949.838 191.668C949.826 191.668 949.813 191.668 949.801 191.668C949.788 191.668 949.776 191.668 949.763 191.668C949.751 191.668 949.738 191.668 949.726 191.668C949.713 191.668 949.701 191.668 949.688 191.668C949.675 191.668 949.663 191.668 949.65 191.668C949.638 191.668 949.625 191.668 949.612 191.668C949.6 191.668 949.587 191.668 949.575 191.668C949.562 191.668 949.549 191.668 949.537 191.668C949.524 191.668 949.511 191.668 949.499 191.668C949.486 191.668 949.473 191.668 949.46 191.668C949.448 191.668 949.435 191.668 949.422 191.668C949.409 191.668 949.397 191.668 949.384 191.668C949.371 191.668 949.358 191.668 949.345 191.668C949.333 191.668 949.32 191.668 949.307 191.668C949.294 191.668 949.281 191.668 949.268 191.668C949.256 191.668 949.243 191.668 949.23 191.668C949.217 191.668 949.204 191.668 949.191 191.668C949.178 191.668 949.165 191.668 949.152 191.668C949.139 191.668 949.126 191.668 949.113 191.668C949.1 191.668 949.087 191.668 949.074 191.668C949.061 191.668 949.048 191.668 949.035 191.668C949.022 191.668 949.009 191.668 948.996 191.668C948.983 191.668 948.97 191.668 948.957 191.668C948.944 191.668 948.931 191.668 948.918 191.668C948.905 191.668 948.892 191.668 948.878 191.668C948.865 191.668 948.852 191.668 948.839 191.668C948.826 191.668 948.813 191.668 948.799 191.668C948.786 191.668 948.773 191.668 948.76 191.668C948.747 191.668 948.733 191.668 948.72 191.668C948.707 191.668 948.694 191.668 948.68 191.668C948.667 191.668 948.654 191.668 948.641 191.668C948.627 191.668 948.614 191.668 948.601 191.668C948.587 191.668 948.574 191.668 948.561 191.668C948.547 191.668 948.534 191.668 948.521 191.668C948.507 191.668 948.494 191.668 948.48 191.668C948.467 191.668 948.454 191.668 948.44 191.668C948.427 191.668 948.413 191.668 948.4 191.668C948.386 191.668 948.373 191.668 948.359 191.668C948.346 191.668 948.332 191.668 948.319 191.668C948.305 191.668 948.292 191.668 948.278 191.668C948.265 191.668 948.251 191.668 948.238 191.668C948.224 191.668 948.21 191.668 948.197 191.668C948.183 191.668 948.17 191.668 948.156 191.668C948.142 191.668 948.129 191.668 948.115 191.668C948.101 191.668 948.088 191.668 948.074 191.668C948.06 191.668 948.047 191.668 948.033 191.668C948.019 191.668 948.006 191.668 947.992 191.668C947.978 191.668 947.964 191.668 947.951 191.668C947.937 191.668 947.923 191.668 947.909 191.668C947.895 191.668 947.882 191.668 947.868 191.668C947.854 191.668 947.84 191.668 947.826 191.668C947.813 191.668 947.799 191.668 947.785 191.668C947.771 191.668 947.757 191.668 947.743 191.668C947.729 191.668 947.715 191.668 947.701 191.668V211.668V231.668C947.715 231.668 947.729 231.668 947.743 231.668C947.757 231.668 947.771 231.668 947.785 231.668C947.799 231.668 947.813 231.668 947.826 231.668C947.84 231.668 947.854 231.668 947.868 231.668C947.882 231.668 947.895 231.668 947.909 231.668C947.923 231.668 947.937 231.668 947.951 231.668C947.964 231.668 947.978 231.668 947.992 231.668C948.006 231.668 948.019 231.668 948.033 231.668C948.047 231.668 948.06 231.668 948.074 231.668C948.088 231.668 948.101 231.668 948.115 231.668C948.129 231.668 948.142 231.668 948.156 231.668C948.17 231.668 948.183 231.668 948.197 231.668C948.21 231.668 948.224 231.668 948.238 231.668C948.251 231.668 948.265 231.668 948.278 231.668C948.292 231.668 948.305 231.668 948.319 231.668C948.332 231.668 948.346 231.668 948.359 231.668C948.373 231.668 948.386 231.668 948.4 231.668C948.413 231.668 948.427 231.668 948.44 231.668C948.454 231.668 948.467 231.668 948.48 231.668C948.494 231.668 948.507 231.668 948.521 231.668C948.534 231.668 948.547 231.668 948.561 231.668C948.574 231.668 948.587 231.668 948.601 231.668C948.614 231.668 948.627 231.668 948.641 231.668C948.654 231.668 948.667 231.668 948.68 231.668C948.694 231.668 948.707 231.668 948.72 231.668C948.733 231.668 948.747 231.668 948.76 231.668C948.773 231.668 948.786 231.668 948.799 231.668C948.813 231.668 948.826 231.668 948.839 231.668C948.852 231.668 948.865 231.668 948.878 231.668C948.892 231.668 948.905 231.668 948.918 231.668C948.931 231.668 948.944 231.668 948.957 231.668C948.97 231.668 948.983 231.668 948.996 231.668C949.009 231.668 949.022 231.668 949.035 231.668C949.048 231.668 949.061 231.668 949.074 231.668C949.087 231.668 949.1 231.668 949.113 231.668C949.126 231.668 949.139 231.668 949.152 231.668C949.165 231.668 949.178 231.668 949.191 231.668C949.204 231.668 949.217 231.668 949.23 231.668C949.243 231.668 949.256 231.668 949.268 231.668C949.281 231.668 949.294 231.668 949.307 231.668C949.32 231.668 949.333 231.668 949.345 231.668C949.358 231.668 949.371 231.668 949.384 231.668C949.397 231.668 949.409 231.668 949.422 231.668C949.435 231.668 949.448 231.668 949.46 231.668C949.473 231.668 949.486 231.668 949.499 231.668C949.511 231.668 949.524 231.668 949.537 231.668C949.549 231.668 949.562 231.668 949.575 231.668C949.587 231.668 949.6 231.668 949.612 231.668C949.625 231.668 949.638 231.668 949.65 231.668C949.663 231.668 949.675 231.668 949.688 231.668C949.701 231.668 949.713 231.668 949.726 231.668C949.738 231.668 949.751 231.668 949.763 231.668C949.776 231.668 949.788 231.668 949.801 231.668C949.813 231.668 949.826 231.668 949.838 231.668C949.851 231.668 949.863 231.668 949.875 231.668C949.888 231.668 949.9 231.668 949.913 231.668C949.925 231.668 949.937 231.668 949.95 231.668C949.962 231.668 949.975 231.668 949.987 231.668C949.999 231.668 950.012 231.668 950.024 231.668C950.036 231.668 950.049 231.668 950.061 231.668C950.073 231.668 950.085 231.668 950.098 231.668C950.11 231.668 950.122 231.668 950.134 231.668C950.147 231.668 950.159 231.668 950.171 231.668C950.183 231.668 950.195 231.668 950.208 231.668C950.22 231.668 950.232 231.668 950.244 231.668C950.256 231.668 950.268 231.668 950.281 231.668C950.293 231.668 950.305 231.668 950.317 231.668C950.329 231.668 950.341 231.668 950.353 231.668C950.365 231.668 950.377 231.668 950.389 231.668C950.401 231.668 950.413 231.668 950.426 231.668C950.438 231.668 950.45 231.668 950.462 231.668C950.474 231.668 950.485 231.668 950.497 231.668C950.509 231.668 950.521 231.668 950.533 231.668C950.545 231.668 950.557 231.668 950.569 231.668C950.581 231.668 950.593 231.668 950.605 231.668C950.617 231.668 950.629 231.668 950.64 231.668C950.652 231.668 950.664 231.668 950.676 231.668C950.688 231.668 950.7 231.668 950.711 231.668C950.723 231.668 950.735 231.668 950.747 231.668C950.759 231.668 950.77 231.668 950.782 231.668C950.794 231.668 950.806 231.668 950.817 231.668C950.829 231.668 950.841 231.668 950.852 231.668C950.864 231.668 950.876 231.668 950.887 231.668C950.899 231.668 950.911 231.668 950.922 231.668C950.934 231.668 950.946 231.668 950.957 231.668C950.969 231.668 950.98 231.668 950.992 231.668C951.004 231.668 951.015 231.668 951.027 231.668C951.038 231.668 951.05 231.668 951.061 231.668C951.073 231.668 951.084 231.668 951.096 231.668C951.107 231.668 951.119 231.668 951.13 231.668C951.142 231.668 951.153 231.668 951.165 231.668C951.176 231.668 951.188 231.668 951.199 231.668C951.211 231.668 951.222 231.668 951.233 231.668C951.245 231.668 951.256 231.668 951.267 231.668C951.279 231.668 951.29 231.668 951.302 231.668C951.313 231.668 951.324 231.668 951.335 231.668C951.347 231.668 951.358 231.668 951.369 231.668C951.381 231.668 951.392 231.668 951.403 231.668C951.414 231.668 951.426 231.668 951.437 231.668C951.448 231.668 951.459 231.668 951.471 231.668C951.482 231.668 951.493 231.668 951.504 231.668C951.515 231.668 951.526 231.668 951.538 231.668C951.549 231.668 951.56 231.668 951.571 231.668C951.582 231.668 951.593 231.668 951.604 231.668C951.615 231.668 951.627 231.668 951.638 231.668C951.649 231.668 951.66 231.668 951.671 231.668C951.682 231.668 951.693 231.668 951.704 231.668C951.715 231.668 951.726 231.668 951.737 231.668C951.748 231.668 951.759 231.668 951.77 231.668C951.781 231.668 951.792 231.668 951.803 231.668C951.814 231.668 951.824 231.668 951.835 231.668C951.846 231.668 951.857 231.668 951.868 231.668C951.879 231.668 951.89 231.668 951.901 231.668C951.911 231.668 951.922 231.668 951.933 231.668C951.944 231.668 951.955 231.668 951.966 231.668C951.976 231.668 951.987 231.668 951.998 231.668C952.009 231.668 952.019 231.668 952.03 231.668C952.041 231.668 952.052 231.668 952.062 231.668C952.073 231.668 952.084 231.668 952.095 231.668C952.105 231.668 952.116 231.668 952.127 231.668C952.137 231.668 952.148 231.668 952.158 231.668C952.169 231.668 952.18 231.668 952.19 231.668C952.201 231.668 952.212 231.668 952.222 231.668C952.233 231.668 952.243 231.668 952.254 231.668C952.264 231.668 952.275 231.668 952.285 231.668C952.296 231.668 952.306 231.668 952.317 231.668C952.327 231.668 952.338 231.668 952.348 231.668C952.359 231.668 952.369 231.668 952.38 231.668C952.39 231.668 952.401 231.668 952.411 231.668C952.421 231.668 952.432 231.668 952.442 231.668C952.453 231.668 952.463 231.668 952.473 231.668C952.484 231.668 952.494 231.668 952.504 231.668C952.515 231.668 952.525 231.668 952.535 231.668C952.546 231.668 952.556 231.668 952.566 231.668C952.577 231.668 952.587 231.668 952.597 231.668C952.607 231.668 952.618 231.668 952.628 231.668C952.638 231.668 952.648 231.668 952.658 231.668C952.669 231.668 952.679 231.668 952.689 231.668C952.699 231.668 952.709 231.668 952.719 231.668C952.73 231.668 952.74 231.668 952.75 231.668C952.76 231.668 952.77 231.668 952.78 231.668C952.79 231.668 952.8 231.668 952.81 231.668C952.82 231.668 952.83 231.668 952.841 231.668C952.851 231.668 952.861 231.668 952.871 231.668C952.881 231.668 952.891 231.668 952.901 231.668C952.911 231.668 952.921 231.668 952.93 231.668C952.94 231.668 952.95 231.668 952.96 231.668C952.97 231.668 952.98 231.668 952.99 231.668C953 231.668 953.01 231.668 953.02 231.668C953.03 231.668 953.039 231.668 953.049 231.668C953.059 231.668 953.069 231.668 953.079 231.668C953.089 231.668 953.098 231.668 953.108 231.668C953.118 231.668 953.128 231.668 953.137 231.668C953.147 231.668 953.157 231.668 953.167 231.668C953.176 231.668 953.186 231.668 953.196 231.668C953.206 231.668 953.215 231.668 953.225 231.668C953.235 231.668 953.244 231.668 953.254 231.668C953.264 231.668 953.273 231.668 953.283 231.668C953.293 231.668 953.302 231.668 953.312 231.668C953.321 231.668 953.331 231.668 953.34 231.668C953.35 231.668 953.36 231.668 953.369 231.668C953.379 231.668 953.388 231.668 953.398 231.668C953.407 231.668 953.417 231.668 953.426 231.668C953.436 231.668 953.445 231.668 953.455 231.668C953.464 231.668 953.474 231.668 953.483 231.668C953.492 231.668 953.502 231.668 953.511 231.668C953.521 231.668 953.53 231.668 953.54 231.668C953.549 231.668 953.558 231.668 953.568 231.668C953.577 231.668 953.586 231.668 953.596 231.668C953.605 231.668 953.614 231.668 953.624 231.668C953.633 231.668 953.642 231.668 953.651 231.668C953.661 231.668 953.67 231.668 953.679 231.668C953.688 231.668 953.698 231.668 953.707 231.668C953.716 231.668 953.725 231.668 953.735 231.668C953.744 231.668 953.753 231.668 953.762 231.668C953.771 231.668 953.78 231.668 953.79 231.668C953.799 231.668 953.808 231.668 953.817 231.668C953.826 231.668 953.835 231.668 953.844 231.668C953.853 231.668 953.862 231.668 953.871 231.668C953.88 231.668 953.889 231.668 953.899 231.668C953.908 231.668 953.917 231.668 953.926 231.668C953.935 231.668 953.944 231.668 953.953 231.668C953.962 231.668 953.97 231.668 953.979 231.668C953.988 231.668 953.997 231.668 954.006 231.668C954.015 231.668 954.024 231.668 954.033 231.668C954.042 231.668 954.051 231.668 954.06 231.668C954.068 231.668 954.077 231.668 954.086 231.668C954.095 231.668 954.104 231.668 954.113 231.668C954.121 231.668 954.13 231.668 954.139 231.668C954.148 231.668 954.157 231.668 954.165 231.668C954.174 231.668 954.183 231.668 954.192 231.668C954.2 231.668 954.209 231.668 954.218 231.668C954.226 231.668 954.235 231.668 954.244 231.668C954.252 231.668 954.261 231.668 954.27 231.668C954.278 231.668 954.287 231.668 954.296 231.668C954.304 231.668 954.313 231.668 954.321 231.668C954.33 231.668 954.339 231.668 954.347 231.668C954.356 231.668 954.364 231.668 954.373 231.668C954.381 231.668 954.39 231.668 954.398 231.668C954.407 231.668 954.415 231.668 954.424 231.668C954.432 231.668 954.441 231.668 954.449 231.668C954.458 231.668 954.466 231.668 954.475 231.668C954.483 231.668 954.492 231.668 954.5 231.668C954.508 231.668 954.517 231.668 954.525 231.668C954.533 231.668 954.542 231.668 954.55 231.668C954.559 231.668 954.567 231.668 954.575 231.668C954.583 231.668 954.592 231.668 954.6 231.668C954.608 231.668 954.617 231.668 954.625 231.668C954.633 231.668 954.641 231.668 954.65 231.668C954.658 231.668 954.666 231.668 954.674 231.668C954.683 231.668 954.691 231.668 954.699 231.668C954.707 231.668 954.715 231.668 954.724 231.668C954.732 231.668 954.74 231.668 954.748 231.668C954.756 231.668 954.764 231.668 954.772 231.668C954.78 231.668 954.788 231.668 954.797 231.668C954.805 231.668 954.813 231.668 954.821 231.668C954.829 231.668 954.837 231.668 954.845 231.668C954.853 231.668 954.861 231.668 954.869 231.668C954.877 231.668 954.885 231.668 954.893 231.668C954.901 231.668 954.909 231.668 954.917 231.668C954.925 231.668 954.933 231.668 954.94 231.668C954.948 231.668 954.956 231.668 954.964 231.668C954.972 231.668 954.98 231.668 954.988 231.668C954.996 231.668 955.003 231.668 955.011 231.668C955.019 231.668 955.027 231.668 955.035 231.668C955.043 231.668 955.05 231.668 955.058 231.668C955.066 231.668 955.074 231.668 955.081 231.668C955.089 231.668 955.097 231.668 955.105 231.668C955.112 231.668 955.12 231.668 955.128 231.668C955.135 231.668 955.143 231.668 955.151 231.668C955.159 231.668 955.166 231.668 955.174 231.668C955.181 231.668 955.189 231.668 955.197 231.668C955.204 231.668 955.212 231.668 955.219 231.668C955.227 231.668 955.235 231.668 955.242 231.668C955.25 231.668 955.257 231.668 955.265 231.668C955.272 231.668 955.28 231.668 955.287 231.668C955.295 231.668 955.302 231.668 955.31 231.668C955.317 231.668 955.325 231.668 955.332 231.668C955.34 231.668 955.347 231.668 955.355 231.668C955.362 231.668 955.369 231.668 955.377 231.668C955.384 231.668 955.392 231.668 955.399 231.668C955.406 231.668 955.414 231.668 955.421 231.668C955.428 231.668 955.436 231.668 955.443 231.668C955.45 231.668 955.458 231.668 955.465 231.668C955.472 231.668 955.479 231.668 955.487 231.668C955.494 231.668 955.501 231.668 955.508 231.668C955.516 231.668 955.523 231.668 955.53 231.668C955.537 231.668 955.545 231.668 955.552 231.668C955.559 231.668 955.566 231.668 955.573 231.668C955.58 231.668 955.588 231.668 955.595 231.668C955.602 231.668 955.609 231.668 955.616 231.668C955.623 231.668 955.63 231.668 955.637 231.668C955.644 231.668 955.651 231.668 955.658 231.668C955.665 231.668 955.672 231.668 955.68 231.668C955.687 231.668 955.694 231.668 955.701 231.668C955.707 231.668 955.714 231.668 955.721 231.668C955.728 231.668 955.735 231.668 955.742 231.668C955.749 231.668 955.756 231.668 955.763 231.668C955.77 231.668 955.777 231.668 955.784 231.668C955.791 231.668 955.797 231.668 955.804 231.668C955.811 231.668 955.818 231.668 955.825 231.668C955.832 231.668 955.838 231.668 955.845 231.668C955.852 231.668 955.859 231.668 955.866 231.668C955.872 231.668 955.879 231.668 955.886 231.668C955.893 231.668 955.899 231.668 955.906 231.668C955.913 231.668 955.92 231.668 955.926 231.668C955.933 231.668 955.94 231.668 955.946 231.668C955.953 231.668 955.96 231.668 955.966 231.668C955.973 231.668 955.979 231.668 955.986 231.668C955.993 231.668 955.999 231.668 956.006 231.668C956.012 231.668 956.019 231.668 956.026 231.668C956.032 231.668 956.039 231.668 956.045 231.668C956.052 231.668 956.058 231.668 956.065 231.668C956.071 231.668 956.078 231.668 956.084 231.668C956.091 231.668 956.097 231.668 956.104 231.668C956.11 231.668 956.116 231.668 956.123 231.668C956.129 231.668 956.136 231.668 956.142 231.668C956.148 231.668 956.155 231.668 956.161 231.668C956.168 231.668 956.174 231.668 956.18 231.668C956.187 231.668 956.193 231.668 956.199 231.668C956.206 231.668 956.212 231.668 956.218 231.668C956.224 231.668 956.231 231.668 956.237 231.668C956.243 231.668 956.249 231.668 956.256 231.668C956.262 231.668 956.268 231.668 956.274 231.668C956.28 231.668 956.287 231.668 956.293 231.668C956.299 231.668 956.305 231.668 956.311 231.668C956.317 231.668 956.324 231.668 956.33 231.668C956.336 231.668 956.342 231.668 956.348 231.668C956.354 231.668 956.36 231.668 956.366 231.668C956.372 231.668 956.378 231.668 956.384 231.668C956.39 231.668 956.396 231.668 956.402 231.668C956.408 231.668 956.414 231.668 956.42 231.668C956.426 231.668 956.432 231.668 956.438 231.668C956.444 231.668 956.45 231.668 956.456 231.668C956.462 231.668 956.468 231.668 956.474 231.668C956.48 231.668 956.486 231.668 956.492 231.668C956.497 231.668 956.503 231.668 956.509 231.668C956.515 231.668 956.521 231.668 956.527 231.668C956.532 231.668 956.538 231.668 956.544 231.668C956.55 231.668 956.556 231.668 956.561 231.668C956.567 231.668 956.573 231.668 956.579 231.668C956.584 231.668 956.59 231.668 956.596 231.668C956.602 231.668 956.607 231.668 956.613 231.668C956.619 231.668 956.624 231.668 956.63 231.668C956.636 231.668 956.641 231.668 956.647 231.668C956.653 231.668 956.658 231.668 956.664 231.668C956.669 231.668 956.675 231.668 956.68 231.668C956.686 231.668 956.692 231.668 956.697 231.668C956.703 231.668 956.708 231.668 956.714 231.668C956.719 231.668 956.725 231.668 956.73 231.668C956.736 231.668 956.741 231.668 956.747 231.668C956.752 231.668 956.758 231.668 956.763 231.668C956.769 231.668 956.774 231.668 956.779 231.668C956.785 231.668 956.79 231.668 956.796 231.668C956.801 231.668 956.806 231.668 956.812 231.668C956.817 231.668 956.822 231.668 956.828 231.668C956.833 231.668 956.838 231.668 956.844 231.668C956.849 231.668 956.854 231.668 956.86 231.668C956.865 231.668 956.87 231.668 956.875 231.668C956.881 231.668 956.886 231.668 956.891 231.668C956.896 231.668 956.901 231.668 956.907 231.668C956.912 231.668 956.917 231.668 956.922 231.668C956.927 231.668 956.932 231.668 956.938 231.668C956.943 231.668 956.948 231.668 956.953 231.668C956.958 231.668 956.963 231.668 956.968 231.668C956.973 231.668 956.978 231.668 956.984 231.668C956.989 231.668 956.994 231.668 956.999 231.668C957.004 231.668 957.009 231.668 957.014 231.668C957.019 231.668 957.024 231.668 957.029 231.668C957.034 231.668 957.039 231.668 957.044 231.668C957.049 231.668 957.053 231.668 957.058 231.668C957.063 231.668 957.068 231.668 957.073 231.668C957.078 231.668 957.083 231.668 957.088 231.668C957.093 231.668 957.097 231.668 957.102 231.668C957.107 231.668 957.112 231.668 957.117 231.668C957.122 231.668 957.126 231.668 957.131 231.668C957.136 231.668 957.141 231.668 957.146 231.668C957.15 231.668 957.155 231.668 957.16 231.668C957.164 231.668 957.169 231.668 957.174 231.668C957.179 231.668 957.183 231.668 957.188 231.668C957.193 231.668 957.197 231.668 957.202 231.668C957.207 231.668 957.211 231.668 957.216 231.668C957.221 231.668 957.225 231.668 957.23 231.668C957.234 231.668 957.239 231.668 957.243 231.668C957.248 231.668 957.253 231.668 957.257 231.668C957.262 231.668 957.266 231.668 957.271 231.668C957.275 231.668 957.28 231.668 957.284 231.668C957.289 231.668 957.293 231.668 957.298 231.668C957.302 231.668 957.307 231.668 957.311 231.668C957.315 231.668 957.32 231.668 957.324 231.668C957.329 231.668 957.333 231.668 957.337 231.668C957.342 231.668 957.346 231.668 957.35 231.668C957.355 231.668 957.359 231.668 957.364 231.668C957.368 231.668 957.372 231.668 957.376 231.668C957.381 231.668 957.385 231.668 957.389 231.668C957.394 231.668 957.398 231.668 957.402 231.668C957.406 231.668 957.411 231.668 957.415 231.668C957.419 231.668 957.423 231.668 957.427 231.668C957.432 231.668 957.436 231.668 957.44 231.668C957.444 231.668 957.448 231.668 957.452 231.668C957.456 231.668 957.461 231.668 957.465 231.668C957.469 231.668 957.473 231.668 957.477 231.668C957.481 231.668 957.485 231.668 957.489 231.668C957.493 231.668 957.497 231.668 957.501 231.668C957.505 231.668 957.509 231.668 957.513 231.668C957.517 231.668 957.521 231.668 957.525 231.668C957.529 231.668 957.533 231.668 957.537 231.668C957.541 231.668 957.545 231.668 957.549 231.668C957.553 231.668 957.557 231.668 957.561 231.668C957.565 231.668 957.568 231.668 957.572 231.668C957.576 231.668 957.58 231.668 957.584 231.668C957.588 231.668 957.591 231.668 957.595 231.668C957.599 231.668 957.603 231.668 957.607 231.668C957.61 231.668 957.614 231.668 957.618 231.668C957.622 231.668 957.625 231.668 957.629 231.668C957.633 231.668 957.637 231.668 957.64 231.668C957.644 231.668 957.648 231.668 957.651 231.668C957.655 231.668 957.659 231.668 957.662 231.668C957.666 231.668 957.67 231.668 957.673 231.668C957.677 231.668 957.68 231.668 957.684 231.668C957.688 231.668 957.691 231.668 957.695 231.668C957.698 231.668 957.702 231.668 957.705 231.668C957.709 231.668 957.712 231.668 957.716 231.668C957.719 231.668 957.723 231.668 957.726 231.668C957.73 231.668 957.733 231.668 957.737 231.668C957.74 231.668 957.744 231.668 957.747 231.668C957.751 231.668 957.754 231.668 957.757 231.668C957.761 231.668 957.764 231.668 957.768 231.668C957.771 231.668 957.774 231.668 957.778 231.668C957.781 231.668 957.784 231.668 957.788 231.668C957.791 231.668 957.794 231.668 957.798 231.668C957.801 231.668 957.804 231.668 957.807 231.668C957.811 231.668 957.814 231.668 957.817 231.668C957.82 231.668 957.824 231.668 957.827 231.668C957.83 231.668 957.833 231.668 957.836 231.668C957.84 231.668 957.843 231.668 957.846 231.668C957.849 231.668 957.852 231.668 957.855 231.668C957.858 231.668 957.862 231.668 957.865 231.668C957.868 231.668 957.871 231.668 957.874 231.668C957.877 231.668 957.88 231.668 957.883 231.668C957.886 231.668 957.889 231.668 957.892 231.668C957.895 231.668 957.898 231.668 957.901 231.668C957.904 231.668 957.907 231.668 957.91 231.668C957.913 231.668 957.916 231.668 957.919 231.668C957.922 231.668 957.925 231.668 957.928 231.668C957.931 231.668 957.934 231.668 957.936 231.668C957.939 231.668 957.942 231.668 957.945 231.668C957.948 231.668 957.951 231.668 957.954 231.668C957.956 231.668 957.959 231.668 957.962 231.668C957.965 231.668 957.968 231.668 957.97 231.668C957.973 231.668 957.976 231.668 957.979 231.668C957.981 231.668 957.984 231.668 957.987 231.668C957.99 231.668 957.992 231.668 957.995 231.668C957.998 231.668 958 231.668 958.003 231.668C958.006 231.668 958.008 231.668 958.011 231.668C958.014 231.668 958.016 231.668 958.019 231.668C958.021 231.668 958.024 231.668 958.027 231.668C958.029 231.668 958.032 231.668 958.034 231.668C958.037 231.668 958.039 231.668 958.042 231.668C958.044 231.668 958.047 231.668 958.049 231.668C958.052 231.668 958.055 231.668 958.057 231.668C958.059 231.668 958.062 231.668 958.064 231.668C958.067 231.668 958.069 231.668 958.072 231.668C958.074 231.668 958.076 231.668 958.079 231.668C958.081 231.668 958.084 231.668 958.086 231.668C958.088 231.668 958.091 231.668 958.093 231.668C958.095 231.668 958.098 231.668 958.1 231.668C958.102 231.668 958.105 231.668 958.107 231.668C958.109 231.668 958.112 231.668 958.114 231.668C958.116 231.668 958.118 231.668 958.12 231.668C958.123 231.668 958.125 231.668 958.127 231.668C958.129 231.668 958.132 231.668 958.134 231.668C958.136 231.668 958.138 231.668 958.14 231.668C958.142 231.668 958.144 231.668 958.147 231.668C958.149 231.668 958.151 231.668 958.153 231.668C958.155 231.668 958.157 231.668 958.159 231.668C958.161 231.668 958.163 231.668 958.165 231.668C958.167 231.668 958.169 231.668 958.171 231.668C958.173 231.668 958.175 231.668 958.177 231.668C958.179 231.668 958.181 231.668 958.183 231.668C958.185 231.668 958.187 231.668 958.189 231.668C958.191 231.668 958.193 231.668 958.195 231.668C958.197 231.668 958.199 231.668 958.201 231.668C958.202 231.668 958.204 231.668 958.206 231.668C958.208 231.668 958.21 231.668 958.212 231.668C958.214 231.668 958.215 231.668 958.217 231.668C958.219 231.668 958.221 231.668 958.222 231.668C958.224 231.668 958.226 231.668 958.228 231.668C958.229 231.668 958.231 231.668 958.233 231.668C958.235 231.668 958.236 231.668 958.238 231.668C958.24 231.668 958.241 231.668 958.243 231.668C958.245 231.668 958.246 231.668 958.248 231.668C958.25 231.668 958.251 231.668 958.253 231.668C958.254 231.668 958.256 231.668 958.258 231.668C958.259 231.668 958.261 231.668 958.262 231.668C958.264 231.668 958.265 231.668 958.267 231.668C958.268 231.668 958.27 231.668 958.271 231.668C958.273 231.668 958.274 231.668 958.276 231.668C958.277 231.668 958.279 231.668 958.28 231.668C958.282 231.668 958.283 231.668 958.284 231.668C958.286 231.668 958.287 231.668 958.289 231.668C958.29 231.668 958.291 231.668 958.293 231.668C958.294 231.668 958.296 231.668 958.297 231.668C958.298 231.668 958.299 231.668 958.301 231.668C958.302 231.668 958.303 231.668 958.305 231.668C958.306 231.668 958.307 231.668 958.308 231.668C958.31 231.668 958.311 231.668 958.312 231.668C958.313 231.668 958.315 231.668 958.316 231.668C958.317 231.668 958.318 231.668 958.319 231.668C958.321 231.668 958.322 231.668 958.323 231.668C958.324 231.668 958.325 231.668 958.326 231.668C958.327 231.668 958.328 231.668 958.329 231.668C958.331 231.668 958.332 231.668 958.333 231.668C958.334 231.668 958.335 231.668 958.336 231.668C958.337 231.668 958.338 231.668 958.339 231.668C958.34 231.668 958.341 231.668 958.342 231.668C958.343 231.668 958.344 231.668 958.345 231.668C958.346 231.668 958.347 231.668 958.348 231.668C958.349 231.668 958.349 231.668 958.35 231.668C958.351 231.668 958.352 231.668 958.353 231.668C958.354 231.668 958.355 231.668 958.356 231.668C958.356 231.668 958.357 231.668 958.358 231.668C958.359 231.668 958.36 231.668 958.36 231.668C958.361 231.668 958.362 231.668 958.363 231.668C958.364 231.668 958.364 231.668 958.365 231.668C958.366 231.668 958.366 231.668 958.367 231.668C958.368 231.668 958.369 231.668 958.369 231.668C958.37 231.668 958.371 231.668 958.371 231.668C958.372 231.668 958.373 231.668 958.373 231.668C958.374 231.668 958.374 231.668 958.375 231.668C958.376 231.668 958.376 231.668 958.377 231.668C958.377 231.668 958.378 231.668 958.378 231.668C958.379 231.668 958.38 231.668 958.38 231.668C958.381 231.668 958.381 231.668 958.382 231.668C958.382 231.668 958.383 231.668 958.383 231.668C958.383 231.668 958.384 231.668 958.384 231.668C958.385 231.668 958.385 231.668 958.386 231.668C958.386 231.668 958.386 231.668 958.387 231.668C958.387 231.668 958.388 231.668 958.388 231.668C958.388 231.668 958.389 231.668 958.389 231.668C958.389 231.668 958.39 231.668 958.39 231.668C958.39 231.668 958.39 231.668 958.391 231.668C958.391 231.668 958.391 231.668 958.391 231.668C958.392 231.668 958.392 231.668 958.392 231.668C958.392 231.668 958.393 231.668 958.393 231.668C958.393 231.668 958.393 231.668 958.393 231.668C958.393 231.668 958.394 231.668 958.394 231.668C958.394 231.668 958.394 231.668 958.394 231.668C958.394 231.668 958.394 231.668 958.394 231.668C958.395 231.668 958.395 231.668 958.395 231.668C958.395 231.668 958.395 231.668 958.395 231.668C958.395 231.668 958.395 231.668 958.395 211.668ZM1125.53 231.59L1145.15 227.668L1143.45 219.204L1136.13 214.63L1125.53 231.59ZM1114.99 268.797L1100.75 254.751L1100.7 254.8L1100.65 254.85L1114.99 268.797ZM1054.05 268.797L1067.81 254.288L1067.8 254.279L1067.8 254.27L1054.05 268.797ZM1040.43 77.6348L1030.02 60.5571L1020.43 66.4029V77.6348H1040.43ZM1105.17 76.7559L1091.97 91.7792L1092.09 91.8851L1092.21 91.989L1105.17 76.7559ZM1114.99 100.193H1094.99V203.172H1114.99H1134.99V100.193H1114.99ZM1114.99 203.172H1094.99C1094.99 219.417 1098.7 238.405 1114.93 248.55L1125.53 231.59L1136.13 214.63C1137.13 215.251 1136.94 215.754 1136.37 214.231C1135.72 212.469 1134.99 209.028 1134.99 203.172H1114.99ZM1125.53 231.59L1105.92 235.512C1105.85 235.144 1105.8 234.839 1105.77 234.622C1105.74 234.4 1105.72 234.222 1105.7 234.096C1105.68 233.856 1105.67 233.712 1105.67 233.703C1105.67 233.696 1105.68 233.893 1105.68 234.373H1125.68H1145.68C1145.68 233.212 1145.69 230.376 1145.15 227.668L1125.53 231.59ZM1125.68 234.373H1105.68V237.01H1125.68H1145.68V234.373H1125.68ZM1125.68 237.01H1105.68C1105.68 247.731 1102.98 252.491 1100.75 254.751L1114.99 268.797L1129.22 282.842C1141.25 270.65 1145.68 254.218 1145.68 237.01H1125.68ZM1114.99 268.797L1100.65 254.85C1098.39 257.174 1094.18 259.637 1084.96 259.637V279.637V299.637C1101.71 299.637 1117.52 294.873 1129.32 282.744L1114.99 268.797ZM1084.96 279.637V259.637C1075.81 259.637 1070.88 257.199 1067.81 254.288L1054.05 268.797L1040.28 283.306C1052.45 294.848 1068.12 299.637 1084.96 299.637V279.637ZM1054.05 268.797L1067.8 254.27C1064.06 250.738 1060.43 243.92 1060.43 229.832H1040.43H1020.43C1020.43 250.509 1025.87 269.668 1040.3 283.324L1054.05 268.797ZM1040.43 229.832H1060.43V77.6348H1040.43H1020.43V229.832H1040.43ZM1040.43 77.6348L1050.84 94.7124C1057.65 90.5581 1065.7 88.2598 1075.58 88.2598V68.2598V48.2598C1059.1 48.2598 1043.71 52.2115 1030.02 60.5571L1040.43 77.6348ZM1075.58 68.2598V88.2598C1086.55 88.2598 1090.72 90.6794 1091.97 91.7792L1105.17 76.7559L1118.37 61.7326C1106.74 51.5042 1091.17 48.2598 1075.58 48.2598V68.2598ZM1105.17 76.7559L1092.21 91.989C1093.51 93.0905 1094.99 94.8889 1094.99 100.193H1114.99H1134.99C1134.99 85.3806 1129.92 71.554 1118.13 61.5227L1105.17 76.7559ZM1217.53 231.59L1237.14 227.668L1235.44 219.204L1228.13 214.63L1217.53 231.59ZM1206.98 268.797L1192.74 254.751L1192.69 254.8L1192.64 254.85L1206.98 268.797ZM1146.04 268.797L1159.81 254.288L1159.8 254.279L1159.79 254.27L1146.04 268.797ZM1132.42 77.6348L1122.01 60.5571L1112.42 66.4029V77.6348H1132.42ZM1197.16 76.7559L1183.96 91.7792L1184.08 91.8851L1184.2 91.989L1197.16 76.7559ZM1206.98 100.193H1186.98V203.172H1206.98H1226.98V100.193H1206.98ZM1206.98 203.172H1186.98C1186.98 219.417 1190.69 238.405 1206.93 248.55L1217.53 231.59L1228.13 214.63C1229.12 215.251 1228.93 215.754 1228.37 214.231C1227.71 212.469 1226.98 209.028 1226.98 203.172H1206.98ZM1217.53 231.59L1197.91 235.512C1197.84 235.144 1197.79 234.839 1197.76 234.622C1197.73 234.4 1197.71 234.222 1197.7 234.096C1197.67 233.856 1197.66 233.712 1197.66 233.703C1197.66 233.696 1197.67 233.893 1197.67 234.373H1217.67H1237.67C1237.67 233.212 1237.68 230.376 1237.14 227.668L1217.53 231.59ZM1217.67 234.373H1197.67V237.01H1217.67H1237.67V234.373H1217.67ZM1217.67 237.01H1197.67C1197.67 247.731 1194.97 252.491 1192.74 254.751L1206.98 268.797L1221.22 282.842C1233.24 270.65 1237.67 254.218 1237.67 237.01H1217.67ZM1206.98 268.797L1192.64 254.85C1190.38 257.174 1186.17 259.637 1176.95 259.637V279.637V299.637C1193.7 299.637 1209.51 294.873 1221.31 282.744L1206.98 268.797ZM1176.95 279.637V259.637C1167.81 259.637 1162.87 257.199 1159.81 254.288L1146.04 268.797L1132.28 283.306C1144.44 294.848 1160.12 299.637 1176.95 299.637V279.637ZM1146.04 268.797L1159.79 254.27C1156.06 250.738 1152.42 243.92 1152.42 229.832H1132.42H1112.42C1112.42 250.509 1117.86 269.668 1132.3 283.324L1146.04 268.797ZM1132.42 229.832H1152.42V77.6348H1132.42H1112.42V229.832H1132.42ZM1132.42 77.6348L1142.83 94.7124C1149.64 90.5581 1157.69 88.2598 1167.57 88.2598V68.2598V48.2598C1151.09 48.2598 1135.7 52.2115 1122.01 60.5571L1132.42 77.6348ZM1167.57 68.2598V88.2598C1178.55 88.2598 1182.71 90.6794 1183.96 91.7792L1197.16 76.7559L1210.37 61.7326C1198.73 51.5042 1183.17 48.2598 1167.57 48.2598V68.2598ZM1197.16 76.7559L1184.2 91.989C1185.5 93.0905 1186.98 94.8889 1186.98 100.193H1206.98H1226.98C1226.98 85.3806 1221.92 71.554 1210.12 61.5227L1197.16 76.7559ZM1298.39 221.043H1278.39V229.327L1284.24 235.185L1298.39 221.043ZM1304.98 175.34L1285.57 180.191L1285.59 180.264L1285.61 180.337L1304.98 175.34ZM1297.07 172.117L1282.92 157.975L1276.3 164.599L1277.15 173.928L1297.07 172.117ZM1243.6 260.301L1257.55 245.968L1257.51 245.933L1257.48 245.898L1243.6 260.301ZM1242.14 135.057L1227.9 121.005L1227.9 121.006L1242.14 135.057ZM1361.08 135.936L1375.62 122.2L1375.6 122.177L1375.57 122.154L1361.08 135.936ZM1361.81 258.982L1347.44 245.076L1347.42 245.1L1347.39 245.124L1361.81 258.982ZM1298.39 195.408H1278.39V221.043H1298.39H1318.39V195.408H1298.39ZM1298.39 221.043L1284.24 235.185C1290.43 241.368 1298.02 242.068 1301.75 242.068V222.068V202.068C1302.36 202.068 1307.71 202.085 1312.53 206.901L1298.39 221.043ZM1301.75 222.068V242.068C1308.37 242.068 1316.78 239.399 1322 231.195L1305.12 220.457L1288.25 209.72C1289.87 207.174 1292.24 205.008 1295.14 203.623C1297.87 202.317 1300.29 202.068 1301.75 202.068V222.068ZM1305.12 220.457L1322 231.195C1325.97 224.956 1326.15 218.037 1326.15 214.891H1306.15H1286.15C1286.15 215.433 1286.11 215.27 1286.22 214.637C1286.29 214.295 1286.42 213.685 1286.69 212.898C1286.97 212.118 1287.44 210.992 1288.25 209.72L1305.12 220.457ZM1306.15 214.891H1326.15V193.943H1306.15H1286.15V214.891H1306.15ZM1306.15 193.943H1326.15C1326.15 185.01 1325.86 176.239 1324.34 170.342L1304.98 175.34L1285.61 180.337C1285.51 179.946 1285.72 180.702 1285.9 183.519C1286.05 186.048 1286.15 189.488 1286.15 193.943H1306.15ZM1304.98 175.34L1324.38 170.489C1323.55 167.158 1321.83 162.355 1317.88 158.145C1313.36 153.317 1307.17 150.652 1300.58 150.652V170.652V190.652C1296.15 190.652 1291.76 188.769 1288.7 185.503C1286.22 182.856 1285.63 180.397 1285.57 180.191L1304.98 175.34ZM1300.58 170.652V150.652C1293.85 150.652 1287.61 153.291 1282.92 157.975L1297.07 172.117L1311.21 186.259C1310.01 187.455 1308.4 188.634 1306.37 189.48C1304.34 190.328 1302.33 190.652 1300.58 190.652V170.652ZM1297.07 172.117L1277.15 173.928C1278 183.329 1278.39 190.416 1278.39 195.408H1298.39H1318.39C1318.39 188.682 1317.89 180.242 1316.98 170.306L1297.07 172.117ZM1243.6 260.301L1257.48 245.898C1246.09 234.933 1239.58 219.629 1239.58 197.605H1219.58H1199.58C1199.58 228.316 1209.07 254.81 1229.72 274.704L1243.6 260.301ZM1219.58 197.605H1239.58C1239.58 175.085 1245.86 159.757 1256.37 149.107L1242.14 135.057L1227.9 121.006C1208.34 140.825 1199.58 167.196 1199.58 197.605H1219.58ZM1242.14 135.057L1256.37 149.108C1267.22 138.118 1281.64 132.059 1301.61 132.059V112.059V92.0586C1272.55 92.0586 1247.33 101.331 1227.9 121.005L1242.14 135.057ZM1301.61 112.059V132.059C1321.34 132.059 1335.68 138.25 1346.59 149.718L1361.08 135.936L1375.57 122.154C1356.2 101.785 1330.9 92.0586 1301.61 92.0586V112.059ZM1361.08 135.936L1346.54 149.671C1357.49 161.257 1363.64 176.793 1363.64 198.191H1383.64H1403.64C1403.64 168.418 1394.75 142.45 1375.62 122.2L1361.08 135.936ZM1383.64 198.191H1363.64C1363.64 219.689 1357.63 234.548 1347.44 245.076L1361.81 258.982L1376.19 272.889C1395.1 253.339 1403.64 227.671 1403.64 198.191H1383.64ZM1361.81 258.982L1347.39 245.124C1337.43 255.488 1323.38 261.541 1302.78 261.541V281.541V301.541C1331.99 301.541 1357.29 292.555 1376.23 272.841L1361.81 258.982ZM1302.78 281.541V261.541C1281.84 261.541 1267.56 255.707 1257.55 245.968L1243.6 260.301L1229.65 274.634C1248.74 293.215 1273.92 301.541 1302.78 301.541V281.541Z" fill="black" mask="url(#path-2-outside-1_3021_3)"/>
<path d="M233.98 10.0303C298.053 9.01027 359.867 33.9276 406.062 79.2637L407.151 80.3379L407.184 80.3711L407.217 80.4053C436.073 109.627 460.911 151.102 461.079 195.849L461.077 196.979C460.938 220.703 453.528 243.872 436.219 261.701V261.702C413.577 285.022 377.854 296.672 342.531 302.756C306.848 308.901 269.581 309.673 242.146 309.769H236.635C208.631 309.747 171.916 309.293 136.545 304.049C99.7698 298.596 62.4576 287.71 38.0979 264.936L36.9485 263.842C18.6962 246.195 10.6994 223.248 10.0432 198.981C8.86584 155.429 31.9926 114.057 59.094 84.7588C103.693 36.5462 165.291 11.8772 228.999 10.1016H229.028C230.677 10.0602 232.328 10.0378 233.98 10.0312V10.0303Z" fill="white" stroke="black" stroke-width="20"/>
<path d="M149.312 118.529C177.202 118.529 200.001 147.289 200.001 183.029C200.001 218.769 177.202 247.529 149.312 247.529C121.423 247.529 98.6238 218.77 98.6238 183.029C98.6238 147.289 121.423 118.529 149.312 118.529Z" fill="black" stroke="black"/>
<path d="M318.477 134.158C345.468 134.158 367.349 156.039 367.349 183.029C367.349 210.02 345.468 231.901 318.477 231.901C291.486 231.901 269.606 210.02 269.606 183.029C269.606 156.039 291.486 134.158 318.477 134.158Z" fill="black" stroke="black"/>
</svg>
